<?xml version="1.0" encoding="UTF-8" standalone="no"?>
<!-- Created with Inkscape (http://www.inkscape.org/) -->

<svg
   xmlns:dc="http://purl.org/dc/elements/1.1/"
   xmlns:cc="http://creativecommons.org/ns#"
   xmlns:rdf="http://www.w3.org/1999/02/22-rdf-syntax-ns#"
   xmlns:svg="http://www.w3.org/2000/svg"
   xmlns="http://www.w3.org/2000/svg"
   xmlns:sodipodi="http://sodipodi.sourceforge.net/DTD/sodipodi-0.dtd"
   xmlns:inkscape="http://www.inkscape.org/namespaces/inkscape"
   width="800"
   height="640"
   viewBox="0 0 211.66667 169.33333"
   version="1.1"
   id="svg83"
   inkscape:version="0.92.1 r15371"
   sodipodi:docname="fukushima base.svg">
  <defs
     id="defs77" />
  <sodipodi:namedview
     id="base"
     pagecolor="#ffffff"
     bordercolor="#666666"
     borderopacity="1.0"
     inkscape:pageopacity="0.0"
     inkscape:pageshadow="2"
     inkscape:zoom="1"
     inkscape:cx="851.3454"
     inkscape:cy="247.91441"
     inkscape:document-units="mm"
     inkscape:current-layer="layer1"
     showgrid="false"
     inkscape:window-width="2736"
     inkscape:window-height="1699"
     inkscape:window-x="-13"
     inkscape:window-y="-13"
     inkscape:window-maximized="1"
     units="px" />
  <metadata
     id="metadata80">
    <rdf:RDF>
      <cc:Work
         rdf:about="x">
        <dc:format>image/svg+xml</dc:format>
        <dc:type
           rdf:resource="http://purl.org/dc/dcmitype/StillImage" />
        <dc:title></dc:title>
      </cc:Work>
    </rdf:RDF>
  </metadata>
  <g
     inkscape:label="Layer 1"
     inkscape:groupmode="layer"
     id="layer1"
     transform="translate(0,-127.6667)">
    <flowRoot
       xml:space="preserve"
       id="flowRoot1619"
       style="font-style:normal;font-variant:normal;font-weight:normal;font-stretch:normal;font-size:48px;line-height:1.25;font-family:Impact;-inkscape-font-specification:Impact;letter-spacing:0px;word-spacing:0px;fill:#000000;fill-opacity:1;stroke:none"
       transform="scale(0.26458333)"><flowRegion
         id="flowRegion1621"><rect
           id="rect1623"
           width="257.14285"
           height="117.14286"
           x="-3380"
           y="-1506.0518" /></flowRegion><flowPara
         id="flowPara1627" /></flowRoot>    <text
       xml:space="preserve"
       style="font-style:normal;font-variant:normal;font-weight:normal;font-stretch:normal;font-size:25.39999962px;line-height:1.25;font-family:Arial;-inkscape-font-specification:Arial;letter-spacing:0px;word-spacing:0px;fill:#000000;fill-opacity:1;stroke:none;stroke-width:0.26458332"
       x="-339.72501"
       y="-494.63333"
       id="text1637"><tspan
         sodipodi:role="line"
         id="tspan1635"
         x="-339.72501"
         y="-471.75418"
         style="stroke-width:0.26458332" /></text>
    <flowRoot
       xml:space="preserve"
       id="flowRoot5440"
       style="font-style:normal;font-variant:normal;font-weight:normal;font-stretch:normal;font-size:133.33332825px;line-height:1.25;font-family:Arial;-inkscape-font-specification:Arial;letter-spacing:0px;word-spacing:0px;fill:#000000;fill-opacity:1;stroke:none"
       transform="matrix(0.26458333,0,0,0.26458333,921.99245,720.31382)"><flowRegion
         id="flowRegion5442"
         style="font-size:133.33332825px"><rect
           id="rect5444"
           width="1952"
           height="512"
           x="-3456"
           y="-2267.4802"
           style="font-size:133.33332825px" /></flowRegion><flowPara
         style="font-size:16px;line-height:1"
         id="flowPara5456" /></flowRoot>    <flowRoot
       xml:space="preserve"
       id="flowRoot5448"
       style="font-style:normal;font-variant:normal;font-weight:normal;font-stretch:normal;font-size:96px;line-height:1.25;font-family:Arial;-inkscape-font-specification:Arial;letter-spacing:0px;word-spacing:0px;fill:#000000;fill-opacity:1;stroke:none"
       transform="scale(0.26458333)"><flowRegion
         id="flowRegion5450"><rect
           id="rect5452"
           width="96"
           height="140"
           x="-3144"
           y="-2027.4803" /></flowRegion><flowPara
         id="flowPara5454"></flowPara></flowRoot>    <g
       id="g5772">
      <path
         id="rect1025"
         d="M 0.07672338,126.41675 H 211.60052 V 296.91546 H 0.07672338 Z"
         style="opacity:1;fill:#c0dcf7;fill-opacity:1;stroke:#000000;stroke-width:0.13229166;stroke-linecap:round;stroke-linejoin:round;stroke-miterlimit:4;stroke-dasharray:none;stroke-opacity:1"
         inkscape:connector-curvature="0" />
      <path
         d="m 124.76783,126.45578 v 0.26308 l 1.31542,2.63083 -1.05233,1.57851 v 2.63083 l 1.84158,0.78925 h 0.52617 l 3.42009,2.36775 h 2.10467 l 0.52617,-1.05233 1.31542,0.52617 h 0.26308 l 1.05233,0.52616 v -1.84158 l 1.57851,-1.05234 3.157,2.63084 h 1.84159 v 0.26308 l 2.89392,0.52617 -0.78925,1.31542 0.52616,3.157 1.31542,1.5785 0.26309,0.26308 3.68317,-1.05233 3.42009,-0.26308 1.05233,-0.78925 0.26309,-1.05234 1.84158,1.84159 1.57851,0.26308 1.5785,-1.05233 0.52617,0.26308 0.78925,1.84158 1.84158,0.52617 1.57851,-0.78925 3.157,1.84158 -0.52617,1.84159 0.26309,0.26308 0.52616,2.63084 -1.31541,2.10467 1.5785,4.20933 v 0.26308 l 2.10467,0.26309 1.31542,2.63083 2.10467,-1.05233 3.157,0.78925 1.5785,1.05233 1.31542,-0.78925 -3.94625,-2.10466 0.52616,-0.52617 0.26309,-0.78925 1.31542,0.52616 5.52475,0.78926 1.57851,-0.52617 v -5.52475 l -0.52617,-1.05234 0.78925,-0.78925 0.52617,-1.05233 -0.52617,-3.68317 0.26308,-0.26309 4.20934,-1.5785 v 0.78925 h 1.57851 l 0.52616,0.78925 1.05234,-0.52616 -1.5785,-12.89109 0.78925,-4.47242 z"
         id="04000"
         inkscape:connector-curvature="0"
         style="fill:#999999;stroke:#000000;stroke-width:0.13229167;stroke-linejoin:round" />
      <path
         d="m 59.523066,126.45578 v 4.20933 l -1.315419,0.26309 -0.263084,1.31541 0.526168,0.78925 -0.789252,1.31542 0.789252,0.78925 -0.526168,2.63084 -1.578502,3.42008 0.263083,3.157 1.052335,1.84159 1.578503,1.05233 0.263084,0.52617 2.630837,2.89392 2.893921,-1.31542 0.789251,0.26308 1.052335,2.63084 0.526168,0.52617 1.052335,1.31541 2.630837,-0.78925 1.841586,-0.52616 1.052335,1.31541 1.578503,2.36775 2.10467,-1.31541 3.157005,-1.5785 2.104669,2.10466 2.10467,-0.26308 2.630838,-0.26308 0.526167,-0.78925 v -1.05234 h 0.789251 l 1.841587,1.5785 0.526167,1.05234 0.263084,1.5785 1.841586,3.94625 1.315419,1.05234 0.526167,-0.26309 h 0.526168 l 3.683172,-1.05233 1.578506,-1.5785 1.5785,2.63083 0.26308,0.26309 h 1.84159 l 1.5785,2.63083 1.5785,0.52617 2.63084,-0.52617 0.78925,-1.84158 1.05234,-0.52617 4.20934,0.52617 3.157,0.78925 h 0.78925 l 2.10467,-2.89392 1.84159,-1.5785 0.78925,-2.36775 1.84159,-1.31542 -2.10467,-1.84159 -1.05234,-0.26308 -0.52617,-1.84158 0.52617,-6.84018 -0.52617,-3.157 0.26309,-0.78925 1.31542,-2.10467 -0.78925,-4.47242 0.78925,-1.05233 v -2.63083 l 1.05233,-1.57851 -1.31542,-2.63083 v -0.26308 z"
         id="06000"
         inkscape:connector-curvature="0"
         style="fill:#999999;stroke:#000000;stroke-width:0.13229167;stroke-linejoin:round" />
      <path
         d="m 173.70141,296.93388 v -0.26308 l 2.63084,-6.314 1.84158,-3.68317 3.15701,-1.05234 -1.31542,-3.68317 -0.78925,0.52617 v -0.78925 l -1.31542,-1.05233 -0.52617,0.52616 -0.26308,-0.26308 -2.63084,-1.05233 -2.89392,0.26308 -2.36775,-1.84158 h -0.26309 l -3.68317,-1.84159 -1.84159,0.52617 -2.36775,-0.78925 -1.05234,-1.84159 -0.26308,-0.26308 -1.84159,-3.42009 -1.84158,1.05234 -0.26309,3.157 0.78926,0.26308 2.10467,5.26167 -2.63084,1.31542 -3.15701,0.52617 -0.26308,0.78925 -0.78925,1.31542 -2.10467,2.63083 -2.10467,0.78925 v 1.05234 l -0.78925,0.78925 -1.84159,1.5785 -0.78925,-1.31542 -1.84159,-2.63084 -0.78925,0.52617 -1.05233,-0.52617 -0.78925,-1.31541 -2.63084,-0.26309 -1.31542,-0.52616 -1.31542,-6.05092 -2.63084,-0.52617 -1.84158,-1.31542 -0.78925,-2.10467 -3.42009,-2.89391 -1.31542,0.52616 -0.78925,-0.26308 -1.5785,1.5785 0.52616,6.05092 -0.26308,3.157 1.05233,2.36775 0.52617,4.73551 -0.26308,1.5785 -1.05234,0.26308 0.26309,0.78925 -0.26309,0.52617 0.78925,0.78925 -0.52616,1.31542 1.05233,1.31541 z"
         id="08000"
         inkscape:connector-curvature="0"
         style="fill:#999999;stroke:#000000;stroke-width:0.13229167;stroke-linejoin:round" />
      <path
         d="m 123.97858,296.93388 -1.05233,-1.31541 0.52616,-1.31542 -0.78925,-0.78925 0.26309,-0.52617 -0.26309,-0.78925 1.05234,-0.26308 0.26308,-1.5785 -0.52617,-4.73551 -1.05233,-2.36775 0.26308,-3.157 -0.52616,-6.05092 1.5785,-1.5785 -2.36776,-1.5785 0.26309,-1.5785 0.78925,-0.78925 -0.78925,-1.57851 0.78925,-1.31541 -1.31542,-2.10467 0.52617,-1.31542 h 0.78925 l -0.26308,-2.10467 -2.89393,0.78925 -2.10467,-0.52616 -0.26308,-1.31542 -0.78925,-3.42009 v -0.78925 l -2.10467,-0.78925 -2.36775,-2.89392 v -0.26308 l -1.31542,-1.5785 -1.05234,0.26308 -1.05233,-1.05233 -2.36776,-1.5785 -3.94625,-0.26308 -1.05234,-0.78925 -2.630835,-1.31542 -6.050926,-0.78925 -0.526167,-0.26309 v -0.52616 h -3.157005 l -1.315419,0.52616 -1.841586,-0.52616 -3.946256,0.78925 -1.578502,1.31541 -2.10467,0.52617 -1.315419,1.5785 -0.526168,0.78925 0.789252,4.20934 -3.420089,-0.78925 -1.578502,-0.26309 -1.052335,1.57851 -1.315419,1.31541 -4.472424,0.52617 -1.052335,1.05233 h -1.841586 -1.052335 l -0.789251,2.36776 -4.20934,1.05233 -0.789251,2.10467 -1.315419,0.26308 h -2.630837 l -0.526168,1.5785 -2.367753,1.05234 -2.10467,1.84158 h -1.315419 l -3.157005,1.5785 -0.789251,-0.78925 -2.10467,0.52617 h -0.526167 l -0.526168,2.10467 -1.052335,0.78925 -1.315419,0.78925 -0.263083,2.10467 H 32.42544 l -1.578502,2.10466 0.263084,1.05234 -1.841587,0.78925 -0.789251,2.10467 -1.052335,0.78925 -0.526167,-0.26309 v 2.36775 l -0.789251,0.78925 3.683172,2.36776 2.10467,0.52616 0.526167,0.52617 -1.841586,1.84159 0.263084,0.52616 -1.578503,0.78925 -0.263083,2.36775 -1.315419,0.52617 -1.052335,1.05234 -0.263084,1.31541 0.526168,1.84159 1.315419,0.52616 z"
         id="09000"
         inkscape:connector-curvature="0"
         style="fill:#999999;stroke:#000000;stroke-width:0.13229167;stroke-linejoin:round" />
      <path
         d="m 28.216101,296.93388 -1.315419,-0.52616 -0.526168,-1.84159 0.263084,-1.31541 1.052335,-1.05234 1.315419,-0.52617 0.263083,-2.36775 1.578503,-0.78925 -0.263084,-0.52616 1.841586,-1.84159 -0.526167,-0.52617 -2.10467,-0.52616 -3.683172,-2.36776 0.789251,-0.78925 v -2.36775 l 0.526167,0.26309 1.052335,-0.78925 0.789251,-2.10467 1.841587,-0.78925 -0.263084,-1.05234 -2.10467,-1.05233 -2.367754,0.78925 -0.789251,-2.10467 -3.420089,0.26309 -1.315418,-1.05234 -1.841586,0.26309 -1.578503,-1.31542 -2.630837,1.5785 -0.789251,-0.52617 -0.526168,-0.78925 0.263084,-0.26308 0.526167,-1.05234 -0.789251,-1.5785 -2.367754,0.78925 -2.630837,-1.31541 -0.2630837,-2.89392 -0.7892512,-2.10467 -1.052335,-0.26308 -3.1570049,-2.89392 -0.7892512,-2.89392 -1.84158618,-1.31542 -0.52616748,-0.26308 v 41.83027 z"
         id="10000"
         inkscape:connector-curvature="0"
         style="fill:#999999;stroke:#000000;stroke-width:0.13229167;stroke-linejoin:round" />
      <path
         d="m 20.586672,126.45578 -3.420089,2.36775 -0.789251,-0.26309 0.526168,0.52617 -2.367754,0.78925 0.526168,2.63084 1.578502,1.31541 h -1.315419 v 0.52617 l -1.315418,-0.26308 0.789251,-1.05234 -1.578503,-2.36775 1.578503,-2.89392 -2.630838,4.20934 -7.6294281,3.42009 -0.7892512,-0.52617 -2.89392114,0.52617 -0.78925122,0.26308 v 119.43991 l 0.52616748,0.26308 1.84158618,1.31542 0.7892512,2.89392 3.1570049,2.89392 1.052335,0.26308 0.7892512,2.10467 0.2630837,2.89392 2.630837,1.31541 2.367754,-0.78925 0.789251,1.5785 -0.526167,1.05234 h 1.052335 l 1.052335,-1.84159 -0.263084,-3.42008 0.526167,-0.52617 -1.052334,-3.94625 1.841586,-3.94625 -0.263084,-1.05234 v -0.26308 l -2.10467,-6.57709 0.789251,-3.68317 v -0.26308 l 1.052335,-4.20934 -1.052335,-0.78925 -0.263083,-2.10467 v -0.26308 H 14.79883 l -1.841586,-2.89392 -1.315419,1.84159 -1.052335,0.26308 -1.3154188,-2.36775 -2.1046699,-3.42009 1.8415862,-3.42008 1.0523345,-1.31542 2.367754,-2.63084 0.263084,-2.10466 0.789251,-1.5785 -0.789251,-1.84159 1.841586,-1.31542 0.263084,-2.89391 -0.526168,-2.89392 -2.10467,-0.52617 -1.315418,-2.63084 0.789251,-0.52616 1.841586,-4.47242 1.315419,0.52616 1.578502,-1.05233 0.789251,0.78925 7.366345,-1.84158 1.052335,0.52616 1.052335,-0.52616 1.578503,-1.05234 3.683172,1.31542 1.052335,-0.78925 0.263084,-3.42009 0.263083,-1.5785 1.841586,-1.5785 2.893922,-0.26308 2.10467,2.10467 2.104669,-1.31542 1.841587,0.52617 1.052335,-0.78925 1.841586,0.26308 2.630837,1.31542 2.10467,-1.31542 0.526168,-2.10467 -1.315419,-0.26308 -1.315419,-2.10467 0.526168,-3.68317 -0.526168,-3.157 -1.841586,-1.5785 -0.263084,-2.63084 1.052335,-2.89392 4.472424,-2.10466 1.315419,-2.36776 1.841586,-0.52616 -0.263084,-2.89392 2.630837,-2.63084 1.052335,-3.42008 2.367754,-2.63084 3.420089,-3.157 1.578502,-1.84158 1.315419,-0.78925 -2.893921,-4.47242 -3.420089,0.78925 -2.630837,-2.89392 -0.263084,-0.52617 -1.578503,-1.05233 -1.052335,-1.84159 -0.263083,-3.157 1.578502,-3.42008 0.526168,-2.63084 -0.789252,-0.78925 0.789252,-1.31542 -0.526168,-0.78925 0.263084,-1.31541 1.315419,-0.26309 v -4.20933 z M 9.2740712,147.76554 Z"
         id="15000"
         inkscape:connector-curvature="0"
         style="fill:#999999;stroke:#000000;stroke-width:0.13229167;stroke-linejoin:round" />
      <path
         d="m 120.55849,173.28464 4.47243,2.10467 0.26308,2.10466 v 0.52617 l 6.31401,-1.05233 3.94626,-0.26309 4.7355,1.05234 6.5771,-1.05234 -0.52617,1.31542 1.05233,1.05234 v -0.78925 h 1.31542 l -0.52616,1.5785 0.52616,0.52616 0.78925,-0.78925 0.78926,-1.84158 -2.10467,-3.157 1.84158,-0.26309 2.63084,-4.47242 -0.52617,-1.05233 h -1.05233 -1.05234 l 1.05234,-1.31542 1.84158,1.05234 0.78925,-3.68317 2.10467,-2.89392 -1.05233,-0.78925 -1.5785,0.26308 -2.10467,0.26308 -0.52617,-2.10466 0.78925,-2.10467 -1.31542,-0.26308 0.52617,-1.05234 -0.78925,-0.26308 -1.31542,-1.05234 -1.5785,0.26309 0.52616,-1.84159 h -1.05233 l -0.78925,-1.5785 v -1.05233 h 1.05233 l -2.36775,-2.10467 -0.26308,-1.5785 1.5785,-3.157 1.05233,-0.52617 -1.31542,-1.5785 -0.52616,-3.157 0.78925,-1.31542 -2.89392,-0.52617 v -0.26308 h -1.84159 l -3.157,-2.63084 -1.57851,1.05234 v 1.84158 l -1.05233,-0.52616 h -0.26308 l -1.31542,-0.52617 -0.52617,1.05233 h -2.10467 l -3.42009,-2.36775 h -0.52617 l -1.84158,-0.78925 -0.78925,1.05233 0.78925,4.47242 -1.31542,2.10467 -0.26309,0.78925 0.52617,3.157 -0.52617,6.84018 0.52617,1.84158 1.05234,0.26308 2.10467,1.84159 -1.84159,1.31542 -0.78925,2.36775 -1.84159,1.5785 -2.10467,2.89392 0.78925,1.5785 -1.31541,0.52616 -0.26309,1.84159 0.78925,1.84158 -0.52616,3.15701 z"
         id="07201"
         inkscape:connector-curvature="0"
         style="fill:#ffffff;fill-opacity:1;stroke:#000000;stroke-width:0.13229167;stroke-linejoin:round" />
      <path
         d="m 86.883775,211.69483 -3.157005,1.84158 -1.315419,1.84159 1.052335,1.84158 v 0.52617 l 3.420089,-1.5785 0.263083,0.78925 h -1.052335 v 1.05233 l 1.052335,1.5785 -0.263083,0.52617 2.893921,-0.26308 0.789251,-1.05234 h 0.789251 l 1.578503,0.78925 h 2.893921 l 1.052335,0.78926 1.315418,-2.36776 1.315419,0.52617 1.841586,-3.68317 -0.78925,-2.89392 1.31542,-4.7355 3.68317,-3.157 2.10467,-3.157 -8.681763,-4.47242 -0.789252,-2.89392 -1.052335,0.26308 v -1.05233 l 0.263084,-0.52617 v -1.05233 l -1.578502,-0.26309 -1.578503,-1.5785 -0.263083,0.52617 -2.893922,-0.52617 -0.263083,-1.31542 -2.630838,-1.5785 h -0.263084 l -1.315418,-0.26308 -0.789251,-0.26308 -1.315419,1.31541 0.263084,1.57851 1.052335,0.26308 -0.263084,1.05233 -0.263084,0.78925 -2.630837,-0.26308 -0.526168,0.52617 v 1.31541 l -1.578502,0.52617 -1.315419,-0.26308 0.526168,0.78925 -1.052335,2.63083 3.420088,6.84017 0.526168,-1.05233 2.893921,0.26308 2.367753,8.15559 z"
         id="07202"
         inkscape:connector-curvature="0"
         style="fill:#ffffff;fill-opacity:1;stroke:#000000;stroke-width:0.13229167;stroke-linejoin:round" />
      <path
         d="m 126.34634,218.27192 9.20793,-0.52617 v 1.31542 l 0.26308,1.05233 6.31401,2.63084 h 1.5785 l 3.42009,2.10466 2.63084,0.78926 1.5785,2.10466 1.05234,0.26309 2.36775,-1.05234 -0.26308,-1.84158 0.26308,-3.157 0.52617,-0.26309 -1.05234,-1.31541 -1.5785,-1.84159 2.36775,-3.94625 -1.31542,-0.78925 -1.84158,-2.10467 -1.31542,-0.26308 -2.63084,0.26308 -0.78925,2.10467 h -1.05233 l 0.52616,-1.31542 -0.78925,-1.31542 -0.78925,0.78925 -1.84159,-0.26308 -0.78925,-1.31542 1.05234,0.26309 v -1.57851 l -1.31542,-0.52616 h -0.26308 v -1.05234 l -1.05234,-0.26308 0.26308,1.05233 h -0.52616 l 0.26308,-2.10466 1.84159,0.52616 0.78925,-1.5785 1.31542,0.78925 0.78925,-0.26308 0.52617,-1.5785 -1.05234,-1.05234 0.52617,-1.84158 1.31542,-1.05233 -0.78925,-0.78925 -0.26309,-0.52617 -2.36775,0.78925 v -0.78925 l -1.05234,0.52617 -1.84158,-0.52617 -0.52617,0.52617 -1.31542,-1.31542 -2.10467,1.5785 -2.10467,1.31542 -3.157,-1.31542 -0.26309,1.5785 -1.84158,-1.31542 0.52616,-0.78925 -0.52616,-3.157 v -1.5785 l -1.57851,-0.26308 -2.36775,-7.36634 0.78925,-5.78784 -0.26308,-0.78925 -2.10467,2.63084 -2.89392,2.10466 0.26308,1.84159 -1.05233,2.36775 -1.31542,0.52617 -0.78925,-1.05234 -1.84159,1.05234 -0.78925,1.5785 -2.10467,2.36775 2.36775,2.10467 -0.26308,1.84158 1.31542,1.5785 -0.52617,1.31542 0.78925,1.05233 -0.52617,2.10467 -1.5785,0.26308 -0.52617,-1.31541 -1.84158,-0.78925 -4.73551,-0.78925 -2.10467,3.157 -3.68317,3.157 -1.31542,4.7355 0.78925,2.89392 -1.841586,3.68317 3.946256,2.63084 1.5785,-0.78925 1.84159,0.52616 0.78925,-0.26308 0.26308,-1.05234 1.57851,-0.52616 2.10467,0.26308 2.36775,-1.84158 1.05233,-2.89392 0.52617,-0.78925 1.05234,2.10467 h 2.36775 l 0.52617,1.84158 2.10467,1.31542 z"
         id="07203"
         inkscape:connector-curvature="0"
         style="fill:#ffffff;fill-opacity:1;stroke:#000000;stroke-width:0.13229167;stroke-linejoin:round" />
      <path
         d="m 159.2318,261.41761 v 1.31542 l -2.36775,1.5785 -1.05234,1.05233 1.84159,2.89392 0.26308,2.36775 1.84159,3.42009 0.26308,0.26308 1.05234,1.84159 2.36775,0.78925 1.84159,-0.52617 3.68317,1.84159 h 0.26309 l 2.36775,1.84158 2.89392,-0.26308 2.63084,1.05233 0.26308,0.26308 0.52617,-0.52616 1.31542,1.05233 v 0.78925 l 0.78925,-0.52617 -0.26309,-1.84158 1.05234,-2.63083 1.84159,-2.10467 1.84158,-0.26309 0.78925,0.26309 1.31542,-1.5785 1.05234,0.52616 -0.26309,-0.78925 h 1.05234 l 0.26308,-1.5785 0.52617,0.78925 1.5785,-1.84158 1.5785,-0.52617 0.26309,0.52617 1.31542,0.78925 2.63083,-3.157 2.10467,-1.84159 v -1.5785 l 0.78926,-1.05233 0.52616,-0.52617 -1.05233,-3.42009 0.26308,-5.26167 2.36776,-7.10325 0.78925,-3.94625 -0.52617,-1.5785 v -3.68317 l -4.47242,-0.52617 -5.26168,-2.89392 -1.05233,-1.5785 -2.63084,0.26308 -0.52617,-1.5785 0.78925,-1.05233 -1.31542,-2.63084 1.31542,-2.36775 -2.10467,0.52617 -0.52617,2.10467 h -0.78925 l -0.78925,-0.52617 -1.05233,1.05233 -2.63084,0.52617 -0.52617,-1.05233 -1.31542,-1.05234 1.05234,-2.10466 -1.84159,-1.57851 -1.84158,-0.78925 -1.84159,0.52617 -1.31542,-1.31542 -1.05233,-1.84158 -0.52617,0.26308 -2.36775,0.52617 -0.26309,3.42008 -0.26308,0.26309 0.52617,1.31542 -1.05234,1.31541 -0.26308,4.20934 -1.57851,1.05233 -1.31541,0.26309 -3.68318,2.89392 -0.52616,-0.26309 -1.05234,0.78925 -0.26308,2.89392 1.05233,2.63084 1.31542,2.10466 0.78925,-1.5785 0.78925,1.84159 2.63084,6.05092 0.26308,0.78925 -1.31541,0.52617 0.52616,1.31541 -1.84158,1.05234 0.26308,1.5785 -1.84159,0.52617 v 1.31541 l -0.78925,3.68317 z m 30.7808,13.15418 1.05234,-2.89392 1.31541,-0.52617 -1.31541,0.52617 z"
         id="07204"
         inkscape:connector-curvature="0"
         style="fill:#ffffff;fill-opacity:1;stroke:#000000;stroke-width:0.13229167;stroke-linejoin:round" />
      <path
         d="m 111.61365,250.89427 v 0.26308 l 2.36775,2.89392 2.10467,0.78925 v 0.78925 l 0.78925,3.42009 0.26308,1.31542 2.10467,0.52616 2.89393,-0.78925 0.26308,2.10467 1.5785,1.31542 0.52617,-1.84158 2.36775,-0.78926 h 2.36776 v -2.89391 l 1.5785,-1.31542 2.10467,0.52617 0.26308,-0.78925 -0.26308,-1.31542 h 1.31542 l -1.05234,-1.5785 1.05234,-0.26309 1.05233,-0.52616 3.42009,-3.42009 0.78925,-0.52617 -0.52616,-0.78925 -2.36776,-1.31541 -1.5785,0.52616 h -0.26308 l -1.05234,0.52617 -2.10467,-0.52617 -3.42009,-0.26308 -1.31542,-0.26308 -0.26308,-1.84159 -1.31542,0.26308 -1.31542,-1.05233 1.31542,-1.84158 -0.26308,-1.05234 -1.84159,-0.52616 -2.63084,-1.31542 2.36776,-1.31542 3.68317,0.26308 1.05233,-1.31541 -0.78925,-1.31542 -1.5785,-1.5785 -1.84159,0.26308 -5.52475,-1.31542 -2.89393,-2.10466 -2.36775,0.26308 -4.99859,-2.36775 -1.5785,1.05233 v 1.31542 l 3.42009,3.68317 1.05233,2.10467 0.52617,-1.57851 2.10467,1.57851 2.36775,1.84158 -0.26308,1.31542 2.63084,1.05233 -0.52617,3.42009 -1.05234,0.78925 -1.84158,0.78925 1.31542,1.05233 -0.78926,0.78925 -0.78925,0.26309 0.52617,1.05233 -1.84159,0.52617 0.26309,0.78925 v 0.52616 l -1.05234,-0.78925 z"
         id="07205"
         inkscape:connector-curvature="0"
         style="fill:#ffffff;fill-opacity:1;stroke:#000000;stroke-width:0.13229167;stroke-linejoin:round" />
      <path
         d="m 133.97576,230.11068 2.89393,0.52616 3.42008,0.78925 0.26309,0.78925 0.26308,0.78925 5.78784,0.52617 0.52617,-0.26308 v -3.157 h 1.84159 l 1.5785,-0.78926 0.26308,-1.05233 1.57851,-0.26308 -1.05234,-0.26309 -1.5785,-2.10466 -2.63084,-0.78926 -3.42009,-2.10466 h -1.5785 l -6.31401,-2.63084 -0.26308,-1.05233 v -1.31542 l -9.20793,0.52617 -4.73551,0.78925 -2.10467,-1.31542 -0.52617,-1.84158 h -2.36775 l -1.05234,-2.10467 -0.52617,0.78925 -1.05233,2.89392 -2.36775,1.84158 -2.10467,-0.26308 -1.57851,0.52616 -0.26308,1.05234 -0.78925,0.26308 v 0.26309 l 0.26308,0.52616 4.73551,3.68317 4.73551,2.36775 1.05233,-0.52616 0.26309,0.78925 4.7355,1.31541 5.78785,1.57851 0.78925,-0.26309 1.31542,-0.78925 0.26308,-1.5785 h 0.52617 l 0.26308,-2.10467 3.68317,1.05234 0.78925,0.78925 -1.05233,1.5785 z"
         id="07207"
         inkscape:connector-curvature="0"
         style="fill:#ffffff;fill-opacity:1;stroke:#000000;stroke-width:0.13229167;stroke-linejoin:round" />
      <path
         d="m 95.565538,182.75565 0.263084,-2.89392 -0.789252,-0.52617 -3.946256,-2.63084 -2.630837,0.26309 -2.367754,0.52616 0.263084,-1.31541 2.893921,-3.42009 h 0.789251 l 1.315419,-2.10467 h 0.789251 l 1.052335,-2.36775 2.367754,-1.31541 -0.789251,-1.05234 0.263083,-2.36775 -0.263083,-1.05233 -1.315419,-1.05234 -1.841586,-3.94625 -0.263084,-1.5785 -0.526167,-1.05234 -1.841587,-1.5785 h -0.789251 v 1.05234 l -0.526167,0.78925 -2.630838,0.26308 -2.10467,0.26308 -2.104669,-2.10466 -3.157005,1.5785 -2.10467,1.31541 -1.578503,-2.36775 -1.052335,-1.31541 -1.841586,0.52616 -2.630837,0.78925 -1.052335,-1.31541 -0.526168,-0.52617 -1.052335,-2.63084 -0.789251,-0.26308 -2.893921,1.31542 3.420089,-0.78925 2.893921,4.47242 -1.315419,0.78925 1.841586,2.89392 -1.841586,1.5785 0.526168,1.05233 0.263083,1.84159 -2.10467,5.78783 -1.052335,2.89392 0.526168,2.36775 -0.789251,0.26309 0.526167,1.84158 -1.052335,3.157 -1.841586,0.26309 -1.578502,1.31541 1.315418,0.26309 -1.052335,1.5785 1.578503,0.52617 0.526167,-0.52617 1.315419,-0.52617 0.789251,3.157 0.789251,-0.26308 h 0.526168 l 0.526167,0.52617 2.893921,-1.5785 0.789252,0.78925 0.526167,-0.26309 0.263084,0.52617 1.841586,-0.26308 -1.052335,-2.63084 1.578503,-2.89392 1.315418,-0.26308 0.526168,1.05233 v 0.78925 l -2.367754,-0.26308 1.315419,0.26308 0.263084,1.5785 -1.052335,0.78926 0.789251,0.26308 0.526167,-1.05234 2.630838,0.78926 0.789251,1.5785 2.10467,0.26308 0.526167,1.31542 1.578503,-0.26309 0.526167,-1.31541 0.789251,0.78925 1.052335,-0.52617 0.789252,1.31542 0.789251,0.26308 1.315418,0.26308 4.20934,-2.63083 0.789252,-1.31542 z"
         id="07208"
         inkscape:connector-curvature="0"
         style="fill:#ffffff;fill-opacity:1;stroke:#000000;stroke-width:0.13229167;stroke-linejoin:round" />
      <path
         d="m 180.2785,163.02438 2.63084,0.52617 1.31542,1.84158 1.31542,-0.52616 2.10467,-1.05234 3.42009,0.52617 0.78925,-0.26308 1.05233,0.78925 1.31542,-1.05234 3.42009,0.78925 4.47242,2.36776 -0.26308,-3.94626 -1.84159,-2.36775 -0.52616,-5.26167 v -1.84158 l -1.05234,-1.05234 0.52617,0.52617 -0.78925,0.26308 1.05233,0.52617 -0.26308,4.20934 v 1.31541 l -1.84159,-1.31541 0.78925,-3.68317 -2.36775,-0.26309 0.52617,-0.52616 1.84158,0.26308 0.26309,-0.78925 -1.31542,-1.31542 -0.26309,0.78925 v -1.5785 l -4.20934,0.78925 -3.157,-0.78925 -3.68317,0.26309 v 5.52475 l -1.57851,0.52617 -5.52475,-0.78926 -1.31542,-0.52616 -0.26309,0.78925 -0.52616,0.52617 3.94625,2.10466 -1.31542,0.78925 -1.5785,-1.05233 -3.157,-0.78925 -2.10467,1.05233 -1.31542,-2.63083 -2.10467,-0.26309 v 0.26309 l -1.5785,1.84158 0.52616,2.10467 2.10467,1.5785 3.42009,-1.31542 v 1.57851 l -0.78925,0.78925 0.26308,0.26308 2.36776,-0.26308 1.5785,-1.57851 z"
         id="07209"
         inkscape:connector-curvature="0"
         style="fill:#ffffff;fill-opacity:1;stroke:#000000;stroke-width:0.13229167;stroke-linejoin:round" />
      <path
         d="m 168.17665,190.38507 -1.31542,-1.5785 1.05234,-2.63084 -0.78925,-0.78925 -1.31542,-0.26308 -3.15701,1.84158 -0.26308,-3.42008 -1.31542,-1.57851 -3.68317,-0.52616 -1.31542,-1.84159 -1.84159,-2.89392 -2.89392,2.10467 v -1.5785 l -1.05233,0.52617 -0.78926,1.84158 -0.78925,0.78925 -0.52616,-0.52616 0.52616,-1.5785 h -1.31542 v 0.78925 l -1.05233,-1.05234 0.52617,-1.31542 -6.5771,1.05234 -4.7355,-1.05234 -3.94626,0.26309 -6.31401,1.05233 0.52617,2.10467 0.26308,0.78925 1.31542,0.52617 4.47242,0.78925 -0.26308,1.5785 0.78925,1.05233 -1.31542,0.26309 2.36776,4.20933 3.94625,-0.78925 2.36776,3.157 0.78925,-0.52616 1.31542,-1.5785 0.78925,2.10466 1.31542,-0.26308 1.05233,1.5785 h 1.31542 l 0.78925,0.78925 0.52617,-0.52617 1.31542,0.26309 v 1.5785 l 1.31542,1.31542 1.05233,0.52616 1.05234,-1.31541 h 1.31541 l 1.05234,1.05233 4.99859,-2.89392 h 1.84159 l 2.36775,-1.84158 3.68317,-0.26309 0.26309,-0.78925 z"
         id="07210"
         inkscape:connector-curvature="0"
         style="fill:#ffffff;fill-opacity:1;stroke:#000000;stroke-width:0.13229167;stroke-linejoin:round" />
      <path
         d="m 150.55004,211.43175 1.31542,0.26308 1.84158,2.10467 1.31542,0.78925 h 1.05234 l 0.78925,1.05233 2.10467,1.5785 1.05233,-0.52616 3.42009,1.31541 0.78925,2.36776 -1.31541,2.63083 1.05233,3.157 1.05234,0.52617 1.5785,-1.84159 2.10467,0.26309 0.26308,-0.26309 0.26309,-3.42008 2.36775,-0.52617 0.52617,-0.26308 -2.10467,-4.47242 0.52616,-1.5785 -0.78925,-1.05234 1.57851,-2.10466 v -1.05234 l 1.31541,-1.05233 3.68318,2.63083 h 2.10467 l 0.78925,1.05234 3.42009,-0.52617 2.89392,1.31542 0.26308,-1.5785 0.78925,-0.52617 v -1.31542 l 0.26309,-1.84158 -1.05234,-1.5785 -0.52617,-2.36775 -0.26308,-2.10467 -1.05234,-0.78925 -0.26308,-0.78925 -1.31542,0.52616 -1.31542,-1.05233 -1.5785,0.52617 -1.31542,-1.05234 -0.78925,0.26309 -0.78925,-1.05234 -4.20934,-1.31542 -3.68317,-1.31541 1.5785,-2.89392 -1.84159,-1.31542 -0.78925,-0.52617 -3.68317,0.26309 -2.36775,1.84158 h -1.84159 l -4.99859,2.89392 0.52617,1.05233 -0.52617,2.10467 -1.5785,1.5785 -0.52617,-1.31541 -1.5785,-0.52617 0.26308,0.78925 -0.52617,1.05233 2.10467,0.26309 -1.31542,0.78925 -0.26308,-0.52617 -0.52617,0.52617 -1.05233,-1.84159 0.26308,0.78925 -1.05233,1.05234 2.36775,1.05233 -0.52617,2.63084 h -0.52616 l 0.26308,1.5785 h -1.31542 l 1.05234,1.5785 z"
         id="07211"
         inkscape:connector-curvature="0"
         style="fill:#ffffff;fill-opacity:1;stroke:#000000;stroke-width:0.13229167;stroke-linejoin:round" />
      <path
         d="m 184.22476,186.17573 0.78925,3.157 2.89392,1.05234 0.52617,2.89391 2.89392,0.52617 0.78925,0.26309 0.52617,-1.31542 1.31542,-0.26309 4.20934,1.57851 2.89392,1.31541 2.89392,-0.52616 1.05233,-0.26309 -1.05233,-12.62801 -1.05234,-7.10325 1.57851,-0.78925 -1.05234,0.52617 -0.26308,-1.05234 1.31542,-0.26308 0.78925,1.05233 -0.78925,-1.05233 -1.57851,0.26308 -0.78925,-2.63083 v -3.94625 l -4.47242,-2.36776 -3.42009,-0.78925 -1.31542,1.05234 -1.05233,-0.78925 -0.78925,0.26308 -3.42009,-0.52617 -2.10467,1.05234 -1.31542,0.52616 0.26308,1.57851 -2.36775,1.31541 -1.05234,1.05234 1.57851,0.78925 -0.78926,2.63083 -0.26308,0.78925 1.05234,0.52617 -0.52617,1.84158 0.78925,2.10467 0.52617,1.31542 -0.52617,1.31542 -1.31542,0.78925 0.52617,0.26308 0.78925,1.84159 1.5785,0.52616 z"
         id="07212"
         inkscape:connector-curvature="0"
         style="fill:#ffffff;fill-opacity:1;stroke:#000000;stroke-width:0.13229167;stroke-linejoin:round" />
      <path
         d="m 172.38599,163.28747 0.78925,-0.78925 v -1.57851 l -3.42009,1.31542 -2.10467,-1.5785 -0.52616,-2.10467 1.5785,-1.84158 v -0.26309 -0.26308 l -1.5785,-4.20933 1.31541,-2.10467 -0.52616,-2.63084 -0.26309,-0.26308 0.52617,-1.84159 -3.157,-1.84158 -1.57851,0.78925 -1.84158,-0.52617 -0.78925,-1.84158 -0.52617,-0.26308 -1.5785,1.05233 -1.31542,3.42008 0.52616,2.36776 -1.05233,-1.05234 -0.52617,1.84159 -1.5785,0.26308 0.26308,0.52617 -0.78925,1.5785 -1.5785,-0.26308 -0.52617,1.84158 -2.10467,-1.05233 -0.52617,1.05233 -2.10467,0.26308 -0.52616,1.84159 1.5785,-0.26309 1.31542,1.05234 0.78925,0.26308 -0.52617,1.05234 1.31542,0.26308 -0.78925,2.10467 0.52617,2.10466 2.10467,-0.26308 1.5785,-0.26308 1.05233,0.78925 -2.10467,2.89392 -0.78925,3.68317 0.26309,0.52616 1.31542,-0.78925 h 0.78925 l 2.10467,3.157 1.5785,-1.84158 1.05233,-1.31542 1.84159,0.78925 1.5785,-0.78925 1.84159,1.5785 0.78925,-1.5785 1.5785,-3.68317 z"
         id="07213"
         inkscape:connector-curvature="0"
         style="fill:#ffffff;fill-opacity:1;stroke:#000000;stroke-width:0.13229167;stroke-linejoin:round" />
      <path
         d="m 150.28696,196.43599 -1.31542,-1.31542 v -1.5785 l -1.31542,-0.26309 -0.52617,0.52617 -0.78925,-0.78925 h -1.31542 l -1.05233,-1.5785 -1.31542,0.26308 -0.78925,-2.10466 -1.31542,1.5785 -0.78925,0.52616 -1.31542,1.05234 -2.10467,-0.52617 -0.26309,2.10467 -4.7355,1.31542 -2.10467,0.26308 0.52616,3.157 -0.52616,0.78925 1.84158,1.31542 0.26309,-1.5785 3.157,1.31542 2.10467,-1.31542 2.10467,-1.5785 1.31542,1.31542 0.52617,-0.52617 1.84158,0.52617 1.05234,-0.52617 v 0.78925 l 2.36775,-0.78925 0.26309,0.52617 2.89392,-0.26309 z"
         id="07214"
         inkscape:connector-curvature="0"
         style="fill:#ffffff;fill-opacity:1;stroke:#000000;stroke-width:0.13229167;stroke-linejoin:round" />
      <path
         d="m 145.55145,143.81929 -1.5785,3.157 0.26308,1.5785 2.36775,2.10467 h -1.05233 v 1.05233 l 0.78925,1.5785 h 1.05233 l 2.10467,-0.26308 0.52617,-1.05233 2.10467,1.05233 0.52617,-1.84158 1.5785,0.26308 0.78925,-1.5785 -0.26308,-0.52617 -1.84159,-0.78925 -0.52616,-1.5785 -2.89393,-0.78925 -2.63083,-2.10467 v -0.52617 l -0.26309,-0.26308 z"
         id="07301"
         inkscape:connector-curvature="0"
         style="fill:#ffffff;fill-opacity:1;stroke:#000000;stroke-width:0.13229167;stroke-linejoin:round" />
      <path
         d="m 158.70564,142.50387 -1.57851,-0.26308 -1.84158,-1.84159 -0.26309,1.05234 -1.05233,0.78925 -3.42009,0.26308 -3.68317,1.05233 v 0.52617 l 2.63083,2.10467 2.89393,0.78925 0.52616,1.5785 1.84159,0.78925 1.5785,-0.26308 0.52617,-1.84159 1.05233,1.05234 -0.52616,-2.36776 z"
         id="07303"
         inkscape:connector-curvature="0"
         style="fill:#ffffff;fill-opacity:1;stroke:#000000;stroke-width:0.13229167;stroke-linejoin:round" />
      <path
         d="m 171.33366,183.28181 -2.10467,-0.78925 -2.89393,-2.63083 -0.78925,-4.73551 0.52617,-1.84158 -1.31542,-1.5785 -1.05233,0.26308 v -0.78925 l 1.5785,-1.31542 -1.84159,-1.5785 -1.5785,0.78925 -1.84159,-0.78925 -1.05233,1.31542 -1.5785,1.84158 -2.10467,-3.157 h -0.78925 l -1.31542,0.78925 -0.52617,1.05234 v 0.78925 l 1.05233,1.05233 -0.26308,1.5785 h 1.5785 l -0.52616,1.05234 1.05233,1.05233 -1.31542,1.05233 1.84159,2.89392 1.31542,1.84159 3.68317,0.52616 1.31542,1.57851 0.26308,3.42008 3.15701,-1.84158 1.31542,0.26308 0.78925,0.78925 -1.05234,2.63084 1.31542,1.5785 1.31542,-3.15701 0.26308,-0.52616 1.05234,0.26308 1.31542,-1.84158 z"
         id="07308"
         inkscape:connector-curvature="0"
         style="fill:#ffffff;fill-opacity:1;stroke:#000000;stroke-width:0.13229167;stroke-linejoin:round" />
      <path
         d="m 152.65471,170.12764 0.52617,-1.05234 -0.26309,-0.52616 -1.84158,-1.05234 -1.05234,1.31542 h 1.05234 1.05233 l 0.52617,1.05233 -2.63084,4.47242 -1.84158,0.26309 2.10467,3.157 1.05233,-0.52617 v 1.5785 l 2.89392,-2.10467 1.31542,-1.05233 -1.05233,-1.05233 0.52616,-1.05234 h -1.5785 l 0.26308,-1.5785 -1.05233,-1.05233 z"
         id="07309"
         inkscape:connector-curvature="0"
         style="fill:#ffffff;fill-opacity:1;stroke:#000000;stroke-width:0.13229167;stroke-linejoin:round" />
      <path
         d="m 125.294,186.7019 2.36775,7.36634 1.57851,0.26308 v 1.5785 l 2.10467,-0.26308 4.7355,-1.31542 0.26309,-2.10467 2.10467,0.52617 1.31542,-1.05234 -2.36776,-3.157 -3.94625,0.78925 -2.36776,-4.20933 1.31542,-0.26309 -0.78925,-1.05233 0.26308,-1.5785 -4.47242,-0.78925 -1.31542,-0.52617 z"
         id="07322"
         inkscape:connector-curvature="0"
         style="fill:#ffffff;fill-opacity:1;stroke:#000000;stroke-width:0.13229167;stroke-linejoin:round" />
      <path
         d="m 136.86969,230.63684 -2.89393,-0.52616 1.05234,-0.52617 1.05233,-1.5785 -0.78925,-0.78925 -3.68317,-1.05234 -0.26308,2.10467 h -0.52617 l -0.26308,1.5785 -1.31542,0.78925 -0.78925,1.5785 0.78925,2.10467 0.78925,0.26308 0.78925,-0.78925 1.31542,0.52617 1.05233,-1.05233 1.31542,0.78925 2.10467,-0.26309 h 0.78925 z"
         id="07342"
         inkscape:connector-curvature="0"
         style="fill:#ffffff;fill-opacity:1;stroke:#000000;stroke-width:0.13229167;stroke-linejoin:round" />
      <path
         d="m 129.24026,230.63684 -0.78925,0.26309 -5.78785,-1.57851 -4.7355,-1.31541 -0.26309,-0.78925 -1.05233,0.52616 -4.73551,-2.36775 -4.73551,-3.68317 -0.26308,-0.52616 v -0.26309 l -1.84159,-0.52616 -1.5785,0.78925 -3.946256,-2.63084 -1.315419,-0.52617 -1.315418,2.36776 -1.052335,0.78925 -0.263084,1.05233 -2.893921,4.99859 h -1.052335 l 0.526167,3.42008 -2.10467,2.63084 1.841587,2.63083 1.841586,0.78925 1.578502,0.52617 h 2.10467 l 4.472426,-1.5785 0.52617,-0.52617 0.78925,0.52617 v -1.84159 l 1.31542,-0.52616 0.52616,-1.5785 -0.26308,-1.05234 1.31542,0.52617 v -1.31542 l 1.5785,-1.05233 4.99859,2.36775 2.36775,-0.26308 2.89393,2.10466 5.52475,1.31542 1.84159,-0.26308 2.10467,-0.52617 0.26308,-1.31542 h 0.78926 z"
         id="07344"
         inkscape:connector-curvature="0"
         style="fill:#ffffff;fill-opacity:1;stroke:#000000;stroke-width:0.13229167;stroke-linejoin:round" />
      <path
         d="m 75.30809,232.47843 1.578502,1.31541 1.052335,-0.52616 2.10467,4.20933 -2.10467,2.36775 1.052335,1.31542 0.789252,-0.26308 1.578502,2.89392 3.946256,-0.78925 1.841586,0.52616 1.315419,-0.52616 h 3.157005 l -0.263084,-2.89392 0.789251,-1.5785 1.578503,-1.84159 -1.841586,-0.78925 -1.841587,-2.63083 2.10467,-2.63084 -0.526167,-3.42008 h 1.052335 l 2.893921,-4.99859 0.263084,-1.05233 1.052335,-0.78925 -1.052335,-0.78926 h -2.893921 l -1.578503,-0.78925 h -0.789251 l -0.789251,1.05234 -2.893921,0.26308 0.263083,-0.52617 -1.052335,-1.5785 v -1.05233 h 1.052335 l -0.263083,-0.78925 -3.420089,1.5785 v -0.52617 l -1.052335,-1.84158 -2.10467,0.26308 -0.263084,1.5785 -1.315418,0.26309 -1.052335,0.52616 0.263083,3.15701 -1.841586,0.52616 -2.630837,1.31542 -0.526168,2.63084 -2.367753,-0.26309 -2.10467,-0.78925 -3.420089,3.157 -0.526167,1.84159 3.157005,0.52617 1.841586,0.26308 -0.263084,1.5785 1.841586,0.26308 1.315419,0.26309 1.841586,-1.05234 h 1.052335 z"
         id="07362"
         inkscape:connector-curvature="0"
         style="fill:#ffffff;fill-opacity:1;stroke:#000000;stroke-width:0.13229167;stroke-linejoin:round" />
      <path
         d="m 16.114248,265.10078 -0.526167,0.52617 0.263084,3.42008 -1.052335,1.84159 h -1.052335 l -0.263084,0.26308 0.526168,0.78925 0.789251,0.52617 2.630837,-1.5785 1.578503,1.31542 1.841586,-0.26309 1.315418,1.05234 3.420089,-0.26309 0.789251,2.10467 2.367754,-0.78925 2.10467,1.05233 1.578502,-2.10466 h 2.630838 l 0.263083,-2.10467 1.315419,-0.78925 1.052335,-0.78925 0.526168,-2.10467 -1.841587,-1.31542 0.526168,-3.68317 -0.526168,-1.31542 -2.893921,-2.63083 0.263084,-2.63084 -0.263084,-1.84158 h -1.578502 l -1.841586,-1.84158 0.526167,-3.15701 -1.315419,-1.31541 -1.052334,0.52616 -2.367754,-1.05233 -1.052335,-4.20934 1.052335,-0.78925 -0.263084,-1.5785 -2.367754,0.52617 -3.420088,0.78925 -2.10467,-2.10467 -0.789251,-3.42008 -1.315419,0.78925 -0.789251,1.05233 h 0.263084 v 0.26308 l 0.263083,2.10467 1.052335,0.78925 -1.052335,4.20934 v 0.26308 l -0.789251,3.68317 2.10467,6.57709 v 0.26308 l 0.263084,1.05234 -1.841586,3.94625 z"
         id="07364"
         inkscape:connector-curvature="0"
         style="fill:#ffffff;fill-opacity:1;stroke:#000000;stroke-width:0.13229167;stroke-linejoin:round" />
      <path
         d="m 10.58949,237.21393 1.052335,-0.26308 1.315419,-1.84159 1.841586,2.89392 0.789251,-1.05233 1.315419,-0.78925 0.789251,3.42008 2.10467,2.10467 3.420088,-0.78925 2.367754,-0.52617 0.263084,1.5785 -1.052335,0.78925 1.052335,4.20934 2.367754,1.05233 1.052334,-0.52616 2.10467,-0.52617 1.315419,-1.84159 1.841586,0.52617 1.315419,-2.10467 2.10467,-1.31541 v -1.84159 l 1.578502,-1.5785 0.526168,-2.10467 1.578502,-2.10467 -1.052335,-2.10466 0.263084,-2.36775 1.052335,-1.31542 -1.052335,-1.05234 -0.789251,-3.157 2.630837,0.52617 0.526168,-1.05234 2.893921,-2.10466 0.789251,1.31541 v -1.05233 l 1.841586,1.31542 0.526168,-0.52617 1.315418,-0.52617 v -2.10466 l -1.578502,-1.05234 -1.578502,-0.78925 1.315418,-1.31542 -1.052335,-1.05233 0.789251,-0.78925 h -0.789251 l -2.630837,-0.78925 -0.526168,-1.84159 h -0.263083 l -0.789252,1.84159 -1.052335,-0.52617 -2.630837,2.89392 H 38.73945 l -2.10467,1.84158 -2.630837,-0.78925 -1.315419,-0.78925 -0.526167,-2.36775 -1.841587,1.05234 -0.526167,-0.78925 -1.315419,-2.89392 1.052335,-0.52617 0.789251,-2.10467 -0.526167,-1.31542 1.578502,-1.05233 -0.263083,-1.5785 1.315418,-1.5785 -0.526167,-2.10467 -3.683172,-1.31542 -1.578503,1.05234 -1.052335,0.52616 -1.052335,-0.52616 -7.366345,1.84158 -0.789251,-0.78925 -1.578502,1.05233 -1.315419,-0.52616 -1.841586,4.47242 -0.789251,0.52616 1.315418,2.63084 2.10467,0.52617 0.526168,2.89392 -0.263084,2.89391 -1.841586,1.31542 0.789251,1.84159 -0.789251,1.5785 -0.263084,2.10466 -2.367754,2.63084 -1.0523345,1.31542 -1.8415862,3.42008 2.1046699,3.42009 z"
         id="07367"
         inkscape:connector-curvature="0"
         style="fill:#ffffff;fill-opacity:1;stroke:#000000;stroke-width:0.13229167;stroke-linejoin:round" />
      <path
         d="m 37.950199,240.37093 v 1.84159 l -2.10467,1.31541 -1.315419,2.10467 -1.841586,-0.52617 -1.315419,1.84159 -2.10467,0.52617 1.315419,1.31541 -0.526167,3.15701 1.841586,1.84158 h 1.578502 l 0.263084,1.84158 -0.263084,2.63084 2.893921,2.63083 0.526168,1.31542 -0.526168,3.68317 1.841587,1.31542 h 0.526167 l 2.10467,-0.52617 0.789251,0.78925 3.157005,-1.5785 h 1.315419 l 2.10467,-1.84158 2.367753,-1.05234 0.526168,-1.5785 h 2.630837 l 1.315419,-0.26308 0.789251,-2.10467 4.20934,-1.05233 0.789251,-2.36776 h 1.052335 1.841586 l 1.052335,-1.05233 4.472424,-0.52617 1.315419,-1.31541 1.052335,-1.57851 1.578502,0.26309 3.420089,0.78925 -0.789252,-4.20934 0.526168,-0.78925 1.315419,-1.5785 2.10467,-0.52617 1.578502,-1.31541 -1.578502,-2.89392 -0.789252,0.26308 -1.052335,-1.31542 2.10467,-2.36775 -2.10467,-4.20933 -1.052335,0.52616 -1.578502,-1.31541 v -1.05234 h -1.052335 l -1.841586,1.05234 -1.315419,-0.26309 -1.841586,-0.26308 0.263084,-1.5785 -1.841586,-0.26308 -3.157005,-0.52617 -1.052335,0.78925 -2.630838,0.26308 -0.263083,0.78925 h -1.315419 l -0.263084,1.31542 -2.10467,-0.26308 -0.789251,0.52616 -1.841586,2.89392 -1.315419,-1.05233 -1.052335,-4.99859 0.789251,-0.78925 0.263084,-2.36775 -1.841586,-1.5785 -0.263084,-1.5785 -0.263084,-1.05234 -1.315418,0.52617 -0.526168,0.52617 -1.841586,-1.31542 v 1.05233 l -0.789251,-1.31541 -2.893921,2.10466 -0.526168,1.05234 -2.630837,-0.52617 0.789251,3.157 1.052335,1.05234 -1.052335,1.31542 -0.263084,2.36775 1.052335,2.10466 -1.578502,2.10467 -0.526168,2.10467 z"
         id="07368"
         inkscape:connector-curvature="0"
         style="fill:#ffffff;fill-opacity:1;stroke:#000000;stroke-width:0.13229167;stroke-linejoin:round" />
      <path
         d="m 88.462277,176.96781 2.630837,-0.26309 3.946256,2.63084 0.789252,0.52617 -0.263084,2.89392 h 1.578502 l 3.94626,-1.05234 2.10467,1.05234 2.63083,-4.99859 5.26168,-3.42009 -0.52617,-1.84158 0.78925,-2.36775 1.31542,-0.78925 1.05234,-6.57709 h -1.31542 l -1.05234,0.52617 -0.78925,1.84158 -2.63084,0.52617 -1.5785,-0.52617 -1.5785,-2.63083 h -1.84159 l -0.26308,-0.26309 -1.5785,-2.63083 -1.578506,1.5785 -3.683172,1.05233 h -0.526168 l -0.526167,0.26309 0.263083,1.05233 -0.263083,2.36775 0.789251,1.05234 -2.367754,1.31541 -1.052335,2.36775 h -0.789251 l -1.315419,2.10467 h -0.789251 l -2.893921,3.42009 -0.263084,1.31541 z"
         id="07402"
         inkscape:connector-curvature="0"
         style="fill:#ffffff;fill-opacity:1;stroke:#000000;stroke-width:0.13229167;stroke-linejoin:round" />
      <path
         d="m 66.363243,187.22806 0.263084,-1.84158 -0.789252,-0.78925 -0.789251,0.26308 -0.789251,-3.157 -1.315419,0.52617 -0.526167,0.52617 -1.578503,-0.52617 1.052335,-1.5785 -1.315418,-0.26309 1.578502,-1.31541 1.841586,-0.26309 1.052335,-3.157 -0.526167,-1.84158 0.789251,-0.26309 -0.526168,-2.36775 1.052335,-2.89392 2.10467,-5.78783 -0.263083,-1.84159 -0.526168,-1.05233 1.841586,-1.5785 -1.841586,-2.89392 -1.578502,1.84158 -3.420089,3.157 -2.367754,2.63084 -1.052335,3.42008 -2.630837,2.63084 0.263084,2.89392 -1.841586,0.52616 -1.315419,2.36776 -4.472424,2.10466 -1.052335,2.89392 0.263084,2.63084 1.841586,1.5785 0.526168,3.157 -0.526168,3.68317 1.315419,2.10467 1.315419,0.26308 -0.526168,2.10467 1.052335,0.26308 h 3.157005 l 4.20934,0.52617 0.526167,-1.84158 1.052335,0.78925 0.789251,-0.78925 0.526168,-4.20934 0.789251,-3.157 z"
         id="07405"
         inkscape:connector-curvature="0"
         style="fill:#ffffff;fill-opacity:1;stroke:#000000;stroke-width:0.13229167;stroke-linejoin:round" />
      <path
         d="m 100.82721,188.2804 -0.26308,-2.89392 2.63084,-1.84158 v -0.78925 l -2.10467,-1.05234 -3.94626,1.05234 h -1.578502 l -2.630837,-0.26309 -0.789252,1.31542 -4.20934,2.63083 h 0.263084 l 2.630838,1.5785 0.263083,1.31542 2.893922,0.52617 0.263083,-0.52617 1.578503,1.5785 1.578502,0.26309 v 1.05233 l 3.683176,-0.52617 v -1.05233 l -1.578506,-1.05233 0.526166,-1.31542 z"
         id="07407"
         inkscape:connector-curvature="0"
         style="fill:#ffffff;fill-opacity:1;stroke:#000000;stroke-width:0.13229167;stroke-linejoin:round" />
      <path
         d="m 97.407124,192.22665 -0.263084,0.52617 v 1.05233 l 1.052335,-0.26308 0.789252,2.89392 8.681763,4.47242 4.73551,0.78925 1.84158,0.78925 0.52617,1.31541 1.5785,-0.26308 0.52617,-2.10467 -0.78925,-1.05233 0.52617,-1.31542 -1.31542,-1.5785 0.26308,-1.84158 -2.36775,-2.10467 2.10467,-2.36775 0.78925,-1.5785 1.84159,-1.05234 0.78925,1.05234 1.31542,-0.52617 1.05233,-2.36775 -0.26308,-1.84159 2.89392,-2.10466 2.10467,-2.63084 -0.52617,-2.10467 v -0.52617 l -0.26308,-2.10466 -4.47243,-2.10467 -0.52616,-0.26308 0.52616,-3.15701 -0.78925,-1.84158 0.26309,-1.84159 1.31541,-0.52616 -0.78925,-1.5785 h -0.78925 l -3.157,-0.78925 -2.89392,-0.52617 -1.05234,6.57709 -1.31542,0.78925 -0.78925,2.36775 0.52617,1.84158 -5.26168,3.42009 -2.63083,4.99859 v 0.78925 l -2.63084,1.84158 0.26308,2.89392 h -0.78925 l -0.526166,1.31542 1.578506,1.05233 v 1.05233 z"
         id="07408"
         inkscape:connector-curvature="0"
         style="fill:#ffffff;fill-opacity:1;stroke:#000000;stroke-width:0.13229167;stroke-linejoin:round" />
      <path
         d="m 82.148267,191.17432 -1.315418,-1.31542 0.263083,-3.94625 -0.526167,-1.31542 -2.10467,-0.26308 -0.789251,-1.5785 -2.630838,-0.78926 -0.526167,1.05234 -0.789251,-0.26308 1.052335,-0.78926 -0.263084,-1.5785 -1.315419,-0.26308 2.367754,0.26308 v -0.78925 l -0.526168,-1.05233 -1.315418,0.26308 -1.578503,2.89392 1.052335,2.63084 -1.841586,0.26308 -0.263084,-0.52617 -0.526167,0.26309 -0.789252,-0.78925 -2.893921,1.5785 -0.526167,-0.52617 h -0.526168 l 0.789252,0.78925 -0.263084,1.84158 2.367753,1.05234 1.052335,0.78925 -0.789251,1.84158 1.841586,1.31542 0.263084,2.36775 0.526168,0.26309 2.893921,-2.10467 h 4.735507 l 1.315419,0.26308 1.578502,-0.52617 z"
         id="07421"
         inkscape:connector-curvature="0"
         style="fill:#ffffff;fill-opacity:1;stroke:#000000;stroke-width:0.13229167;stroke-linejoin:round" />
      <path
         d="m 85.568356,190.12198 0.263084,-1.05233 -1.052335,-0.26308 -0.263084,-1.57851 1.315419,-1.31541 -0.789252,-1.31542 -1.052335,0.52617 -0.789251,-0.78925 -0.526167,1.31541 -1.578503,0.26309 -0.263083,3.94625 1.315418,1.31542 0.526168,-0.52617 2.630837,0.26308 z"
         id="07422"
         inkscape:connector-curvature="0"
         style="fill:#ffffff;fill-opacity:1;stroke:#000000;stroke-width:0.13229167;stroke-linejoin:round" />
      <path
         d="m 68.204829,202.48691 -0.263084,-1.05234 1.052335,0.26309 1.578503,-1.5785 0.789251,-2.63084 -0.263084,-2.89392 -0.263084,-2.36775 -1.841586,-1.31542 0.789251,-1.84158 -1.052335,-0.78925 -2.367753,-1.05234 -2.367754,-0.52616 -0.789251,3.157 -0.526168,4.20934 -0.789251,0.78925 -1.052335,-0.78925 -0.526167,1.84158 -4.20934,-0.52617 h -3.157005 l -0.263084,1.31542 0.789252,0.78925 4.472423,-0.52617 4.998591,0.26309 0.789251,1.05233 1.578503,1.84159 -3.420089,0.52616 0.526168,1.5785 -2.893921,3.94626 -0.526168,3.42008 1.315419,1.84159 -2.630838,2.89392 1.315419,1.31541 1.052335,1.31542 1.578502,0.26308 2.630838,-1.31541 1.315419,-0.78925 1.578502,0.26308 2.10467,-2.10467 -0.263084,-1.5785 1.315419,-2.10467 -0.263084,-0.78925 0.263084,-2.36775 -1.841586,-2.10467 z"
         id="07423"
         inkscape:connector-curvature="0"
         style="fill:#ffffff;fill-opacity:1;stroke:#000000;stroke-width:0.13229167;stroke-linejoin:round" />
      <path
         d="m 52.156721,207.48549 1.052335,4.20934 1.052335,0.52617 -0.526168,1.31541 1.578503,1.05234 2.367753,-0.26308 2.630838,-2.89392 -1.315419,-1.84159 0.526168,-3.42008 2.893921,-3.94626 -0.526168,-1.5785 3.420089,-0.52616 -1.578503,-1.84159 -0.789251,-1.05233 -4.998591,-0.26309 -4.472423,0.52617 v 0.26308 l -1.315419,3.68317 2.367754,1.05234 v 2.63083 z"
         id="07444"
         inkscape:connector-curvature="0"
         style="fill:#ffffff;fill-opacity:1;stroke:#000000;stroke-width:0.13229167;stroke-linejoin:round" />
      <path
         d="m 28.479184,212.221 1.315419,2.89392 0.526167,0.78925 1.841587,-1.05234 0.526167,2.36775 1.315419,0.78925 2.630837,0.78925 2.10467,-1.84158 h 1.052335 l 2.630837,-2.89392 1.052335,0.52617 0.789252,-1.84159 h 0.263083 l 1.315419,-1.31541 1.841586,-0.52617 2.893921,1.05233 2.630838,-0.26308 -1.052335,-4.20934 2.367754,-2.36775 v -2.63083 l -2.367754,-1.05234 1.315419,-3.68317 v -0.26308 l -0.789252,-0.78925 0.263084,-1.31542 -1.052335,-0.26308 -2.10467,1.31542 -2.630837,-1.31542 -1.841586,-0.26308 -1.052335,0.78925 -1.841587,-0.52617 -2.104669,1.31542 -2.10467,-2.10467 -2.893922,0.26308 -1.841586,1.5785 -0.263083,1.5785 -0.263084,3.42009 -1.052335,0.78925 0.526167,2.10467 -1.315418,1.5785 0.263083,1.5785 -1.578502,1.05233 0.526167,1.31542 -0.789251,2.10467 z"
         id="07445"
         inkscape:connector-curvature="0"
         style="fill:#ffffff;fill-opacity:1;stroke:#000000;stroke-width:0.13229167;stroke-linejoin:round" />
      <path
         d="m 68.467913,224.58592 -0.789251,-4.99859 -2.10467,-2.63083 -0.263084,-1.5785 0.263084,-0.26308 -1.315419,0.78925 -2.630838,1.31541 -1.578502,-0.26308 -1.052335,-1.31542 -1.315419,-1.31541 -2.367753,0.26308 -1.578503,-1.05234 0.526168,-1.31541 -1.052335,-0.52617 -2.630838,0.26308 -2.893921,-1.05233 -1.841586,0.52617 -1.315419,1.31541 0.526168,1.84159 2.630837,0.78925 h 0.789251 l -0.789251,0.78925 1.052335,1.05233 -1.315418,1.31542 1.578502,0.78925 1.578502,1.05234 v 2.10466 l 0.263084,1.05234 0.263084,1.5785 1.841586,1.5785 -0.263084,2.36775 -0.789251,0.78925 1.052335,4.99859 1.315419,1.05233 1.841586,-2.89392 0.789251,-0.52616 2.10467,0.26308 0.263084,-1.31542 h 1.315419 l 0.263083,-0.78925 2.630838,-0.26308 1.052335,-0.78925 0.526167,-1.84159 z"
         id="07446"
         inkscape:connector-curvature="0"
         style="fill:#ffffff;fill-opacity:1;stroke:#000000;stroke-width:0.13229167;stroke-linejoin:round" />
      <path
         d="m 69.257164,213.27333 -2.10467,2.10467 -1.578502,-0.26308 -0.263084,0.26308 0.263084,1.5785 2.10467,2.63083 0.789251,4.99859 2.10467,0.78925 2.367753,0.26309 0.526168,-2.63084 2.630837,-1.31542 1.841586,-0.52616 -0.263083,-3.15701 1.052335,-0.52616 1.315418,-0.26309 0.263084,-1.5785 2.10467,-0.26308 1.315419,-1.84159 3.157005,-1.84158 1.052334,-1.31542 -2.367753,-8.15559 -2.893921,-0.26308 -0.526168,1.05233 -3.420088,-6.84017 1.052335,-2.63083 -0.526168,-0.78925 h -4.735507 l -2.893921,2.10467 -0.526168,-0.26309 0.263084,2.89392 -0.789251,2.63084 -1.578503,1.5785 -1.052335,-0.26309 0.263084,1.05234 0.263084,1.84158 1.841586,2.10467 -0.263084,2.36775 0.263084,0.78925 -1.315419,2.10467 z"
         id="07447"
         inkscape:connector-curvature="0"
         style="fill:#ffffff;fill-opacity:1;stroke:#000000;stroke-width:0.13229167;stroke-linejoin:round" />
      <path
         d="m 100.82721,245.89569 1.05234,0.78925 3.94625,0.26308 2.36776,1.5785 1.05233,1.05233 1.05234,-0.26308 1.31542,1.5785 0.52616,-0.52617 1.05234,0.78925 v -0.52616 l -0.26309,-0.78925 1.84159,-0.52617 -0.52617,-1.05233 0.78925,-0.26309 0.78926,-0.78925 -1.31542,-1.05233 1.84158,-0.78925 1.05234,-0.78925 0.52617,-3.42009 -2.63084,-1.05233 0.26308,-1.31542 -2.36775,-1.84158 -2.10467,-1.57851 -0.52617,1.57851 -1.05233,-2.10467 -3.42009,-3.68317 -1.31542,-0.52617 0.26308,1.05234 -0.52616,1.5785 -1.31542,0.52616 v 1.84159 l -0.78925,-0.52617 -0.52617,0.52617 -4.472426,1.5785 h -2.10467 l -1.578502,-0.52617 -1.578503,1.84159 -0.789251,1.5785 0.263084,2.89392 v 0.52616 l 0.526167,0.26309 6.050926,0.78925 z"
         id="07461"
         inkscape:connector-curvature="0"
         style="fill:#ffffff;fill-opacity:1;stroke:#000000;stroke-width:0.13229167;stroke-linejoin:round" />
      <path
         d="m 123.97858,244.0541 1.31542,1.05233 1.31542,-0.26308 0.26308,1.84159 1.31542,0.26308 3.42009,0.26308 -0.26308,-2.89392 -1.84159,-1.05233 0.26308,-0.52617 v -2.36775 l -3.157,-2.10467 -3.68317,-0.26308 -2.36776,1.31542 2.63084,1.31542 1.84159,0.52616 0.26308,1.05234 z"
         id="07464"
         inkscape:connector-curvature="0"
         style="fill:#ffffff;fill-opacity:1;stroke:#000000;stroke-width:0.13229167;stroke-linejoin:round" />
      <path
         d="m 131.34493,244.31718 0.26308,2.89392 2.10467,0.52617 1.05234,-0.52617 h 0.26308 l -0.26308,-0.52616 v -1.84159 l 2.10467,-2.63083 1.5785,-0.26309 v -0.78925 l -0.78925,-1.05233 -1.84159,-0.26309 -0.78925,1.57851 -1.84159,1.05233 -0.78925,-0.26308 z"
         id="07465"
         inkscape:connector-curvature="0"
         style="fill:#ffffff;fill-opacity:1;stroke:#000000;stroke-width:0.13229167;stroke-linejoin:round" />
      <path
         d="m 138.71127,239.05551 -0.26308,-0.52616 -1.05234,-2.10467 0.78925,-1.84159 -0.78925,-0.78925 h -0.78925 l -2.10467,0.26309 -1.31542,-0.78925 -1.05233,1.05233 -1.31542,-0.52617 -0.78925,0.78925 -0.78925,-0.26308 -0.78925,-2.10467 h -0.78926 l -0.26308,1.31542 -2.10467,0.52617 1.5785,1.5785 0.78925,1.31542 -1.05233,1.31541 3.157,2.10467 v 2.36775 l -0.26308,0.52617 1.84159,1.05233 1.05233,-2.10466 0.78925,0.26308 1.84159,-1.05233 0.78925,-1.57851 1.84159,0.26309 0.78925,1.05233 z"
         id="07466"
         inkscape:connector-curvature="0"
         style="fill:#ffffff;fill-opacity:1;stroke:#000000;stroke-width:0.13229167;stroke-linejoin:round" />
      <path
         d="m 140.02669,261.15453 1.05233,2.10467 0.26309,-0.78925 1.5785,-0.52617 1.5785,-0.78925 -1.05233,-2.36775 -1.84159,0.52616 -0.52617,1.05234 -0.26308,-0.78925 0.78925,-1.84159 -1.31542,-0.26308 -0.52616,-1.05233 -1.57851,-1.05234 0.52617,-3.157 -0.78925,-0.26308 -1.31542,2.36775 -1.05233,-1.31542 -0.26309,-0.26308 -1.05233,0.52616 -1.05234,0.26309 1.05234,1.5785 h -1.31542 l 0.26308,1.31542 -0.26308,0.78925 -2.10467,-0.52617 -1.5785,1.31542 v 2.89391 h -2.36776 l -2.36775,0.78926 -0.52617,1.84158 -1.5785,-1.31542 h -0.78925 l -0.52617,1.31542 1.31542,2.10467 -0.78925,1.31541 0.78925,1.57851 -0.78925,0.78925 -0.26309,1.5785 2.36776,1.5785 0.78925,0.26308 1.31542,-0.52616 0.52617,-0.78926 0.26308,-1.31541 h 2.63084 l 1.05233,0.78925 1.5785,-0.26309 2.89393,-2.10466 0.52616,-1.57851 0.26309,-0.78925 2.63083,2.36776 0.52617,-1.05234 0.78925,-0.52617 -0.78925,-1.84158 0.26309,-1.31542 0.78925,-0.26308 -0.78925,-1.5785 z"
         id="07481"
         inkscape:connector-curvature="0"
         style="fill:#ffffff;fill-opacity:1;stroke:#000000;stroke-width:0.13229167;stroke-linejoin:round" />
      <path
         d="m 137.13277,285.62129 2.63084,0.26309 0.78925,1.31541 1.05233,0.52617 0.78925,-0.52617 1.84159,2.63084 0.78925,1.31542 1.84159,-1.5785 0.78925,-0.78925 v -1.05234 l 2.10467,-0.78925 2.10467,-2.63083 -2.63084,-1.57851 -0.26308,-1.84158 -0.78925,0.26308 -1.31542,-0.52616 -0.26309,-1.31542 h -1.31542 l -0.52616,-1.31542 -0.78925,0.26309 -0.52617,-1.57851 -1.84159,-3.42008 -2.10467,-0.26308 0.26309,4.47242 -2.10467,1.31541 -0.78925,-0.52616 -1.84159,-1.57851 -1.84159,0.52617 -1.5785,-1.84158 -1.31542,-1.84159 -3.94625,-2.10467 -0.52617,0.78926 3.42009,2.89391 0.78925,2.10467 1.84158,1.31542 2.63084,0.52617 1.31542,6.05092 z"
         id="07482"
         inkscape:connector-curvature="0"
         style="fill:#ffffff;fill-opacity:1;stroke:#000000;stroke-width:0.13229167;stroke-linejoin:round" />
      <path
         d="m 143.44678,276.67645 0.52617,1.57851 0.78925,-0.26309 0.52616,1.31542 h 1.31542 l 0.26309,1.31542 1.31542,0.52616 0.78925,-0.26308 0.26308,1.84158 2.63084,1.57851 0.78925,-1.31542 0.26308,-0.78925 3.15701,-0.52617 2.63084,-1.31542 -2.10467,-5.26167 -0.78926,-0.26308 0.26309,-3.157 -0.78925,-0.78925 -4.99859,-1.05234 -5.26168,-2.36775 -1.5785,-0.78925 2.36775,-2.89392 v -1.5785 l -1.31542,-1.05233 -1.5785,0.78925 -1.5785,0.52617 -0.26309,0.78925 -1.05233,-2.10467 -1.05233,0.78925 0.78925,1.5785 -0.78925,0.26308 -0.26309,1.31542 0.78925,1.84158 -0.78925,0.52617 -0.52617,1.05234 -2.63083,-2.36776 -0.26309,0.78925 -0.52616,1.57851 -2.89393,2.10466 -1.5785,0.26309 -1.05233,-0.78925 h -2.63084 l -0.26308,1.31541 3.94625,2.10467 1.31542,1.84159 1.5785,1.84158 1.84159,-0.52617 1.84159,1.57851 0.78925,0.52616 2.10467,-1.31541 -0.26309,-4.47242 2.10467,0.26308 z"
         id="07483"
         inkscape:connector-curvature="0"
         style="fill:#ffffff;fill-opacity:1;stroke:#000000;stroke-width:0.13229167;stroke-linejoin:round" />
      <path
         d="m 145.02528,267.46853 5.26168,2.36775 4.99859,1.05234 0.78925,0.78925 1.84158,-1.05234 -0.26308,-2.36775 -1.84159,-2.89392 1.05234,-1.05233 -0.26308,-0.26308 -1.31542,-1.05234 -0.26309,-5.52475 -0.26308,-1.31542 -1.5785,-1.31542 -1.31542,0.52617 -1.31542,-1.31542 -0.52617,-1.31541 -1.5785,-0.78925 -2.10467,1.31541 -1.05234,-0.26308 h -0.78925 l -2.36775,0.78925 v 2.89392 l 1.31542,2.10467 1.05233,2.36775 1.31542,1.05233 v 1.5785 l -2.36775,2.89392 z"
         id="07484"
         inkscape:connector-curvature="0"
         style="fill:#ffffff;fill-opacity:1;stroke:#000000;stroke-width:0.13229167;stroke-linejoin:round" />
      <path
         d="m 144.23603,248.7896 1.05233,4.20934 1.05234,0.26308 2.10467,-1.31541 1.05233,-1.31542 -0.78925,-1.05234 -0.52616,-1.05233 2.10467,-0.52617 1.84158,-2.10466 -0.78925,-1.31542 1.5785,-1.05234 v -1.31541 l -1.31542,-0.78925 -0.26308,-1.57851 -0.78925,0.26309 -2.36775,-2.36775 -2.36776,-1.31542 -1.84158,1.31542 h -2.36776 l -1.5785,0.52616 -0.26308,1.31542 -1.05234,-0.52617 -0.26308,2.10467 v 0.78925 l -1.5785,0.26309 -2.10467,2.63083 v 1.84159 l 0.26308,0.52616 1.5785,-0.52616 2.36776,1.31541 1.31541,-0.52616 2.63084,1.5785 z"
         id="07501"
         inkscape:connector-curvature="0"
         style="fill:#ffffff;fill-opacity:1;stroke:#000000;stroke-width:0.13229167;stroke-linejoin:round" />
      <path
         d="m 148.18229,237.7401 1.84158,-3.94626 v -1.84158 l 0.52617,-2.63084 -1.5785,0.78926 h -1.84159 v 3.157 l -0.52617,0.26308 -5.78784,-0.52617 -0.26308,-0.78925 -0.26309,-0.78925 -3.42008,-0.78925 0.52616,3.157 0.78925,0.78925 -0.78925,1.84159 1.05234,2.10467 0.26308,0.52616 1.05234,0.52617 0.26308,-1.31542 1.5785,-0.52616 h 2.36776 l 1.84158,-1.31542 z"
         id="07502"
         inkscape:connector-curvature="0"
         style="fill:#ffffff;fill-opacity:1;stroke:#000000;stroke-width:0.13229167;stroke-linejoin:round" />
      <path
         d="m 160.54722,242.21252 -1.05233,-2.63084 0.26308,-2.89392 1.05234,-0.78925 -1.84159,-3.157 0.52617,-2.10467 -1.05234,-1.31542 -1.5785,0.52617 -1.05234,-1.84158 -1.05233,-1.05234 -2.36775,1.05234 -1.57851,0.26308 -0.26308,1.05233 -0.52617,2.63084 v 1.84158 l -1.84158,3.94626 2.36775,2.36775 0.78925,-0.26309 0.26308,1.57851 1.31542,0.78925 1.05234,0.26308 1.5785,-1.5785 1.5785,0.26308 0.78925,1.31542 z"
         id="07503"
         inkscape:connector-curvature="0"
         style="fill:#ffffff;fill-opacity:1;stroke:#000000;stroke-width:0.13229167;stroke-linejoin:round" />
      <path
         d="m 144.49911,252.99894 h 0.78925 l -1.05233,-4.20934 -1.31542,0.26309 -2.63084,-1.5785 -1.31541,0.52616 0.52616,0.78925 -0.78925,0.52617 -3.42009,3.42009 0.26309,0.26308 1.05233,1.31542 1.31542,-2.36775 0.78925,0.26308 -0.52617,3.157 1.57851,1.05234 0.52616,1.05233 1.31542,0.26308 -0.78925,1.84159 0.26308,0.78925 0.52617,-1.05234 1.84159,-0.52616 -1.31542,-2.10467 v -2.89392 z"
         id="07504"
         inkscape:connector-curvature="0"
         style="fill:#ffffff;fill-opacity:1;stroke:#000000;stroke-width:0.13229167;stroke-linejoin:round" />
      <path
         d="m 155.02246,257.47136 0.26309,5.52475 1.31542,1.05234 0.26308,0.26308 2.36775,-1.5785 v -1.31542 h 2.10467 l 0.78925,-3.68317 v -1.31541 l 1.84159,-0.52617 -0.26308,-1.5785 1.84158,-1.05234 -0.52616,-1.31541 1.31541,-0.52617 -0.26308,-0.78925 -2.63084,-6.05092 -0.78925,-1.84159 -0.78925,1.5785 -1.31542,-2.10466 -2.63084,0.26308 -0.78925,-1.31542 -1.5785,-0.26308 -1.5785,1.5785 -1.05234,-0.26308 v 1.31541 l -1.5785,1.05234 0.78925,1.31542 -1.84158,2.10466 -2.10467,0.52617 0.52616,1.05233 0.78925,1.05234 -1.05233,1.31542 1.5785,0.78925 0.52617,1.31541 1.31542,1.31542 1.31542,-0.52617 1.5785,1.31542 z"
         id="07505"
         inkscape:connector-curvature="0"
         style="fill:#ffffff;fill-opacity:1;stroke:#000000;stroke-width:0.13229167;stroke-linejoin:round" />
      <path
         d="m 144.7622,205.90699 -1.31542,-0.78925 -0.78925,1.5785 -1.84159,-0.52616 -0.26308,2.10466 h 0.52616 l -0.26308,-1.05233 1.05234,0.26308 v 1.05234 h 0.26308 l 1.31542,0.52616 v 1.57851 l -1.05234,-0.26309 0.78925,1.31542 1.84159,0.26308 0.78925,-0.78925 0.78925,1.31542 -0.52616,1.31542 h 1.05233 l 0.78925,-2.10467 2.63084,-0.26308 -0.26308,-2.10467 -1.05234,-1.5785 h 1.31542 l -0.26308,-1.5785 h 0.52616 l 0.52617,-2.63084 -2.36775,-1.05233 1.05233,-1.05234 -0.26308,-0.78925 1.05233,1.84159 0.52617,-0.52617 0.26308,0.52617 1.31542,-0.78925 -2.10467,-0.26309 0.52617,-1.05233 -0.26308,-0.78925 1.5785,0.52617 0.52617,1.31541 1.5785,-1.5785 0.52617,-2.10467 -0.52617,-1.05233 -1.05234,-1.05233 h -1.31541 l -1.05234,1.31541 -1.05233,-0.52616 -1.31542,2.63083 -2.89392,0.26309 0.78925,0.78925 -1.31542,1.05233 -0.52617,1.84158 1.05234,1.05234 -0.52617,1.5785 z"
         id="07521"
         inkscape:connector-curvature="0"
         style="fill:#ffffff;fill-opacity:1;stroke:#000000;stroke-width:0.13229167;stroke-linejoin:round" />
      <path
         d="m 159.49489,230.63684 -0.52617,2.10467 1.84159,3.157 0.52616,0.26309 3.68318,-2.89392 1.31541,-0.26309 1.57851,-1.05233 0.26308,-4.20934 1.05234,-1.31541 -0.52617,-1.31542 -2.10467,-0.26309 -1.5785,1.84159 -1.05234,-0.52617 -1.05233,-3.157 1.31541,-2.63083 -0.78925,-2.36776 -3.42009,-1.31541 -1.05233,0.52616 -2.10467,-1.5785 -0.78925,-1.05233 h -1.05234 l -2.36775,3.94625 1.5785,1.84159 1.05234,1.31541 -0.52617,0.26309 -0.26308,3.157 0.26308,1.84158 1.05233,1.05234 1.05234,1.84158 1.5785,-0.52617 z"
         id="07522"
         inkscape:connector-curvature="0"
         style="fill:#ffffff;fill-opacity:1;stroke:#000000;stroke-width:0.13229167;stroke-linejoin:round" />
      <path
         d="m 202.9037,230.89993 -1.31541,-0.26309 h -5.26168 l -3.157,0.26309 -1.57851,-0.78925 -1.31542,0.78925 -1.5785,0.26308 -0.78925,1.05233 0.52617,1.5785 2.63084,-0.26308 1.05233,1.5785 5.26168,2.89392 4.47242,0.52617 0.26308,-3.42009 0.78925,-2.63083 h 1.05234 l 0.78925,-1.05234 -0.78925,1.05234 v -1.5785 z"
         id="07541"
         inkscape:connector-curvature="0"
         style="fill:#ffffff;fill-opacity:1;stroke:#000000;stroke-width:0.13229167;stroke-linejoin:round" />
      <path
         d="m 188.69718,231.16301 1.5785,-0.26308 1.31542,-0.78925 1.57851,0.78925 3.157,-0.26309 h 5.26168 l 1.31541,0.26309 1.31542,-9.73409 1.31542,-0.52617 h -1.05233 l -2.36776,0.52617 v 1.31541 l -6.31401,-2.63083 -0.78925,-1.31542 -2.36775,-0.26308 -1.31542,1.05233 -0.52617,2.89392 0.78925,1.05233 -1.5785,0.52617 -0.26308,1.05233 -1.05234,1.31542 -1.31542,2.36775 z"
         id="07542"
         inkscape:connector-curvature="0"
         style="fill:#ffffff;fill-opacity:1;stroke:#000000;stroke-width:0.13229167;stroke-linejoin:round" />
      <path
         d="m 195.80044,219.85042 6.31401,2.63083 v -1.31541 l 2.36776,-0.52617 0.78925,-0.26308 -1.05234,-0.52617 0.52617,-2.63084 0.52617,-3.94625 -1.31542,-0.26308 -6.84018,-0.52617 -1.31542,-0.52617 -3.94625,1.31542 -0.26309,1.5785 -0.52616,1.05234 1.5785,2.36775 2.36775,0.26308 z"
         id="07543"
         inkscape:connector-curvature="0"
         style="fill:#ffffff;fill-opacity:1;stroke:#000000;stroke-width:0.13229167;stroke-linejoin:round" />
      <path
         d="m 178.17383,224.05975 1.84159,1.57851 -1.05234,2.10466 1.31542,1.05234 0.52617,1.05233 2.63084,-0.52617 1.05233,-1.05233 0.78925,0.52617 h 0.78925 l 0.52617,-2.10467 2.10467,-0.52617 1.05234,-1.31542 0.26308,-1.05233 1.5785,-0.52617 -0.78925,-1.05233 0.52617,-2.89392 1.31542,-1.05233 -1.5785,-2.36775 0.52616,-1.05234 0.26309,-1.5785 -0.26309,-0.26308 -4.99859,-1.31542 -0.78925,0.52617 -0.26308,1.5785 -2.89392,-1.31542 -3.42009,0.52617 -0.78925,-1.05234 h -2.10467 l -3.68318,-2.63083 -1.31541,1.05233 v 1.05234 l -1.57851,2.10466 0.78925,1.05234 -0.52616,1.5785 2.10467,4.47242 1.05233,1.84158 1.31542,1.31542 1.84159,-0.52617 z"
         id="07544"
         inkscape:connector-curvature="0"
         style="fill:#ffffff;fill-opacity:1;stroke:#000000;stroke-width:0.13229167;stroke-linejoin:round" />
      <path
         d="m 203.95604,213.01025 1.31542,0.26308 -0.26309,-6.05092 0.78926,-0.52617 -0.52617,0.52617 -0.26309,-1.05233 h -1.5785 l -1.5785,-1.05234 -1.05234,1.84159 -3.68317,0.78925 -3.157,-1.05234 -3.42009,-0.26308 -0.26309,-1.05233 -1.5785,0.52616 -1.31542,1.31542 -1.5785,-0.26308 1.05234,1.5785 -0.26309,1.84158 v 1.31542 l 4.99859,1.31542 0.26309,0.26308 3.94625,-1.31542 1.31542,0.52617 z"
         id="07545"
         inkscape:connector-curvature="0"
         style="fill:#ffffff;fill-opacity:1;stroke:#000000;stroke-width:0.13229167;stroke-linejoin:round" />
      <path
         d="m 193.95886,206.69624 3.157,1.05234 3.68317,-0.78925 1.05234,-1.84159 1.5785,1.05234 h 1.5785 l 0.78926,0.52616 -0.78926,-1.05233 0.26309,-3.157 v -1.5785 l -0.52617,0.78925 -1.5785,-1.31542 -1.5785,-0.78925 -3.68318,1.05233 -1.84158,2.89392 -2.63084,0.52617 -1.05234,-0.52617 -2.36775,0.52617 0.26308,1.31542 0.26309,1.05233 z"
         id="07546"
         inkscape:connector-curvature="0"
         style="fill:#ffffff;fill-opacity:1;stroke:#000000;stroke-width:0.13229167;stroke-linejoin:round" />
      <path
         d="m 203.16679,200.38224 1.5785,1.31542 0.52617,-0.78925 0.52617,-2.10467 -0.52617,-0.26308 -0.26309,-3.94626 -1.05233,0.26309 -2.89392,0.52616 -2.89392,-1.31541 -4.20934,-1.57851 -1.31542,0.26309 -0.52617,1.31542 -0.78925,-0.26309 -2.89392,-0.52617 -0.52617,-2.89391 -2.89392,-1.05234 -0.78925,-3.157 0.26308,-2.10467 -1.5785,-0.52616 -0.78925,-1.84159 -0.52617,-0.26308 -0.52617,1.5785 -1.84158,1.31542 -1.05234,-1.05234 -2.63084,0.26309 -4.20933,-0.26309 0.78925,1.84159 -1.31542,1.84158 -1.05234,-0.26308 -0.26308,0.52616 -1.31542,3.15701 -0.26308,0.52616 3.42009,0.52617 3.42008,0.78925 v -1.05233 l 0.78925,-0.26309 2.36776,0.52617 1.05233,1.05233 4.20934,-1.31541 1.84159,0.26308 0.52617,4.20934 -0.26309,1.05233 -1.31542,-0.26308 0.52617,3.157 -0.52617,2.10467 1.05234,0.78925 0.26308,2.10467 0.52617,2.36775 1.5785,0.26308 1.31542,-1.31542 1.5785,-0.52616 -0.26308,-1.31542 2.36775,-0.52617 1.05234,0.52617 2.63084,-0.52617 1.84158,-2.89392 3.68318,-1.05233 z"
         id="07547"
         inkscape:connector-curvature="0"
         style="fill:#ffffff;fill-opacity:1;stroke:#000000;stroke-width:0.13229167;stroke-linejoin:round" />
      <path
         d="m 177.38458,200.11916 0.78925,-0.26309 1.31542,1.05234 1.5785,-0.52617 1.31542,1.05233 1.31542,-0.52616 0.26308,0.78925 0.52617,-2.10467 -0.52617,-3.157 1.31542,0.26308 0.26309,-1.05233 -0.52617,-4.20934 -1.84159,-0.26308 -4.20934,1.31541 -1.05233,-1.05233 -2.36776,-0.52617 -0.78925,0.26309 v 1.05233 l -3.42008,-0.78925 -3.42009,-0.52617 -0.26309,0.78925 0.78925,0.52617 1.84159,1.31542 -1.5785,2.89392 3.68317,1.31541 4.20934,1.31542 z"
         id="07548"
         inkscape:connector-curvature="0"
         style="fill:#ffffff;fill-opacity:1;stroke:#000000;stroke-width:0.13229167;stroke-linejoin:round" />
      <path
         d="m 193.43269,144.08237 v -0.26308 l -1.05234,0.52616 -0.52616,-0.78925 h -1.57851 v -0.78925 l -4.20934,1.5785 -0.26308,0.26309 0.52617,3.68317 -0.52617,1.05233 -0.78925,0.78925 0.52617,1.05234 3.68317,-0.26309 3.157,0.78925 4.20934,-0.78925 -1.05233,-1.5785 0.52617,-0.78925 -0.78925,0.78925 -0.52617,-1.05233 z"
         id="07561"
         inkscape:connector-curvature="0"
         style="fill:#ffffff;fill-opacity:1;stroke:#000000;stroke-width:0.13229167;stroke-linejoin:round" />
      <path
         d="m 166.33506,179.86173 2.89393,2.63083 2.10467,0.78925 4.20933,0.26309 2.63084,-0.26309 1.05234,1.05234 1.84158,-1.31542 0.52617,-1.5785 1.31542,-0.78925 0.52617,-1.31542 -0.52617,-1.31542 -0.78925,-2.10467 0.52617,-1.84158 -1.05234,-0.52617 0.26308,-0.78925 0.78926,-2.63083 -1.57851,-0.78925 1.05234,-1.05234 2.36775,-1.31541 -0.26308,-1.57851 -1.31542,-1.84158 -2.63084,-0.52617 -3.68317,-1.31542 -1.5785,1.57851 -2.36776,0.26308 -0.26308,-0.26308 -4.73551,1.31541 -1.5785,3.68317 -0.78925,1.5785 -1.5785,1.31542 v 0.78925 l 1.05233,-0.26308 1.31542,1.5785 -0.52617,1.84158 z"
         id="07564"
         inkscape:connector-curvature="0"
         style="fill:#ffffff;fill-opacity:1;stroke:#000000;stroke-width:0.13229167;stroke-linejoin:round" />
      <rect
         y="267.47989"
         x="6.517067"
         height="27.07752"
         width="105.78512"
         id="rect1617"
         style="opacity:1;fill:#ffffff;fill-opacity:1;stroke:#000000;stroke-width:0.3;stroke-linecap:round;stroke-linejoin:round;stroke-miterlimit:4;stroke-dasharray:none;stroke-opacity:1" />
      <circle
         r="7.1729169"
         cy="281.11063"
         cx="17.448622"
         id="path1615"
         style="opacity:1;fill:none;fill-opacity:1;stroke:#000000;stroke-width:0.30000001;stroke-linecap:round;stroke-linejoin:round;stroke-miterlimit:4;stroke-dasharray:none;stroke-opacity:1" />
      <circle
         r="3.8187499"
         cy="283.97336"
         cx="89.38665"
         id="path1615-3"
         style="opacity:1;fill:#e10f0f;fill-opacity:1;stroke:#000000;stroke-width:0.30000001;stroke-linecap:round;stroke-linejoin:round;stroke-miterlimit:4;stroke-dasharray:none;stroke-opacity:1" />
      <circle
         r="3.8187499"
         cy="283.70883"
         cx="64.780457"
         id="path1615-3-6"
         style="opacity:1;fill:#00ff00;fill-opacity:1;stroke:#000000;stroke-width:0.30000001;stroke-linecap:round;stroke-linejoin:round;stroke-miterlimit:4;stroke-dasharray:none;stroke-opacity:1" />
      <rect
         y="129.06258"
         x="2.1933901"
         height="21.611004"
         width="113.72923"
         id="rect1617-2"
         style="opacity:1;fill:#ffffff;fill-opacity:1;stroke:#000000;stroke-width:0.3;stroke-linecap:round;stroke-linejoin:round;stroke-miterlimit:4;stroke-dasharray:none;stroke-opacity:1" />
      <text
         id="text5462"
         y="137.51724"
         x="4.009397"
         style="font-style:normal;font-variant:normal;font-weight:normal;font-stretch:normal;font-size:5.64444447px;line-height:1.25;font-family:Arial;-inkscape-font-specification:Arial;letter-spacing:0px;word-spacing:0px;fill:#000000;fill-opacity:1;stroke:none;stroke-width:0.26458332"
         xml:space="preserve"><tspan
           style="font-size:7.05555534px;stroke-width:0.26458332"
           y="137.51724"
           x="4.009397"
           id="tspan5460"
           sodipodi:role="line">Population and Population Change</tspan><tspan
           id="tspan5464"
           style="font-size:7.05555534px;stroke-width:0.26458332"
           y="146.33669"
           x="4.009397"
           sodipodi:role="line">Fukushima 1999 - 2018</tspan></text>
      <text
         id="text5462-4"
         y="280.03433"
         x="27.061916"
         style="font-style:normal;font-variant:normal;font-weight:normal;font-stretch:normal;font-size:5.64444447px;line-height:1.25;font-family:Arial;-inkscape-font-specification:Arial;letter-spacing:0px;word-spacing:0px;fill:#000000;fill-opacity:1;stroke:none;stroke-width:0.26458332"
         xml:space="preserve"><tspan
           style="font-size:5.64444444px;stroke-width:0.26458332"
           y="280.03433"
           x="27.061916"
           id="tspan5460-7"
           sodipodi:role="line">100,000</tspan><tspan
           id="tspan5464-8"
           style="font-size:5.64444444px;stroke-width:0.26458332"
           y="288.85379"
           x="27.061916"
           sodipodi:role="line">Population</tspan></text>
      <text
         id="text5462-4-1"
         y="276.69769"
         x="64.246895"
         style="font-style:normal;font-variant:normal;font-weight:normal;font-stretch:normal;font-size:5.64444447px;line-height:1.25;font-family:Arial;-inkscape-font-specification:Arial;letter-spacing:0px;word-spacing:0px;fill:#000000;fill-opacity:1;stroke:none;stroke-width:0.26458332"
         xml:space="preserve"><tspan
           id="tspan5514"
           style="font-size:5.64444447px;stroke-width:0.26458332"
           y="276.69769"
           x="64.246895"
           sodipodi:role="line">% change/year</tspan></text>
      <text
         id="text5462-4-1-9"
         y="286.19208"
         x="94.81041"
         style="font-style:normal;font-variant:normal;font-weight:normal;font-stretch:normal;font-size:5.64444447px;line-height:1.25;font-family:Arial;-inkscape-font-specification:Arial;letter-spacing:0px;word-spacing:0px;fill:#000000;fill-opacity:1;stroke:none;stroke-width:0.26458332"
         xml:space="preserve"><tspan
           id="tspan5514-7"
           style="font-size:5.64444447px;stroke-width:0.26458332"
           y="286.19208"
           x="94.81041"
           sodipodi:role="line">&lt;-2%</tspan></text>
      <text
         id="text5462-4-1-2"
         y="285.92749"
         x="70.204155"
         style="font-style:normal;font-variant:normal;font-weight:normal;font-stretch:normal;font-size:5.64444447px;line-height:1.25;font-family:Arial;-inkscape-font-specification:Arial;letter-spacing:0px;word-spacing:0px;fill:#000000;fill-opacity:1;stroke:none;stroke-width:0.26458332"
         xml:space="preserve"><tspan
           id="tspan5514-9"
           style="font-size:5.64444447px;stroke-width:0.26458332"
           y="285.92749"
           x="70.204155"
           sodipodi:role="line">&gt;2%</tspan></text>
    </g>
  </g>
</svg>
