<svg width="800" height="640" version="1.1" xmlns:xlink="http://www.w3.org/1999/xlink" xmlns="http://www.w3.org/2000/svg">
  <title>地域区分図</title>
  <desc>Author: Lincun</desc>
  <g>
    <defs>
      <path d="M470-4v1l5 10-4 6v10l7 3h2l13 9h8l2-4 5 2h1l4 2v-7l6-4 12 10h7v1l11 2-3 5 2 12 5 6 1 1 14-4 13-1 4-3 1-4 7 7 6 1 6-4 2 1 3 7 7 2 6-3 12 7-2 7 1 1 2 10-5 8 6 16v1l8 1 5 10 8-4 12 3 6 4 5-3-15-8 2-2 1-3 5 2 21 3 6-2v-21l-2-4 3-3 2-4-2-14 1-1 16-6v3h6l2 3 4-2-6-49 3-17z" id="04000" />
      <path d="M222-4v16l-5 1-1 5 2 3-3 5 3 3-2 10-6 13 1 12 4 7 6 4 1 2 10 11 11-5 3 1 4 10 2 2 4 5 10-3 7-2 4 5 6 9 8-5 12-6 8 8 8-1 10-1 2-3v-4h3l7 6 2 4 1 6 7 15 5 4 2-1h2l14-4 6-6 6 10 1 1h7l6 10 6 2 10-2 3-7 4-2 16 2 12 3h3l8-11 7-6 3-9 7-5-8-7-4-1-2-7 2-26-2-12 1-3 5-8-3-17 3-4v-10l4-6-5-10v-1z" id="06000" />
      <path d="M656 644v-1l10-24 7-14 12-4-5-14-3 2v-3l-5-4-2 2-1-1-10-4-11 1-9-7h-1l-14-7-7 2-9-3-4-7-1-1-7-13-7 4-1 12 3 1 8 20-10 5-12 2-1 3-3 5-8 10-8 3v4l-3 3-7 6-3-5-7-10-3 2-4-2-3-5-10-1-5-2-5-23-10-2-7-5-3-8-13-11-5 2-3-1-6 6 2 23-1 12 4 9 2 18-1 6-4 1 1 3-1 2 3 3-2 5 4 5z" id="08000" />
      <path d="M467 644l-4-5 2-5-3-3 1-2-1-3 4-1 1-6-2-18-4-9 1-12-2-23 6-6-9-6 1-6 3-3-3-6 3-5-5-8 2-5h3l-1-8-11 3-8-2-1-5-3-13v-3l-8-3-9-11v-1l-5-6-4 1-4-4-9-6-15-1-4-3-10-5-23-3-2-1v-2h-12l-5 2-7-2-15 3-6 5-8 2-5 6-2 3 3 16-13-3-6-1-4 6-5 5-17 2-4 4h-7h-4l-3 9-16 4-3 8-5 1h-10l-2 6-9 4-8 7h-5l-12 6-3-3-8 2h-2l-2 8-4 3-5 3-1 8h-10l-6 8 1 4-7 3-3 8-4 3-2-1v9l-3 3 14 9 8 2 2 2-7 7 1 2-6 3-1 9-5 2-4 4-1 5 2 7 5 2z" id="09000" />
      <path d="M103 644l-5-2-2-7 1-5 4-4 5-2 1-9 6-3-1-2 7-7-2-2-8-2-14-9 3-3v-9l2 1 4-3 3-8 7-3-1-4-8-4-9 3-3-8-13 1-5-4-7 1-6-5-10 6-3-2-2-3 1-1 2-4-3-6-9 3-10-5-1-11-3-8-4-1-12-11-3-11-7-5-2-1v159z" id="10000" />
      <path d="M74-4l-13 9-3-1 2 2-9 3 2 10 6 5h-5v2l-5-1 3-4-6-9 6-11-10 16-29 13-3-2-11 2-3 1v454l2 1 7 5 3 11 12 11 4 1 3 8 1 11 10 5 9-3 3 6-2 4h4l4-7-1-13 2-2-4-15 7-15-1-4v-1l-8-25 3-14v-1l4-16-4-3-1-8v-1h-1l-7-11-5 7-4 1-5-9-8-13 7-13 4-5 9-10 1-8 3-6-3-7 7-5 1-11-2-11-8-2-5-10 3-2 7-17 5 2 6-4 3 3 28-7 4 2 4-2 6-4 14 5 4-3 1-13 1-6 7-6 11-1 8 8 8-5 7 2 4-3 7 1 10 5 8-5 2-8-5-1-5-8 2-14-2-12-7-6-1-10 4-11 17-8 5-9 7-2-1-11 10-10 4-13 9-10 13-12 6-7 5-3-11-17-13 3-10-11-1-2-6-4-4-7-1-12 6-13 2-10-3-3 3-5-2-3 1-5 5-1v-16zM31 77z" id="15000" />
      <path d="M454 174l17 8 1 8v2l24-4 15-1 18 4 25-4-2 5 4 4v-3h5l-2 6 2 2 3-3 3-7-8-12 7-1 10-17-2-4h-4h-4l4-5 7 4 3-14 8-11-4-3-6 1-8 1-2-8 3-8-5-1 2-4-3-1-5-4-6 1 2-7h-4l-3-6v-4h4l-9-8-1-6 6-12 4-2-5-6-2-12 3-5-11-2v-1h-7l-12-10-6 4v7l-4-2h-1l-5-2-2 4h-8l-13-9h-2l-7-3-3 4 3 17-5 8-1 3 2 12-2 26 2 7 4 1 8 7-7 5-3 9-7 6-8 11 3 6-5 2-1 7 3 7-2 12z" id="07201" />
      <path d="M326 320l-12 7-5 7 4 7v2l13-6 1 3h-4v4l4 6-1 2 11-1 3-4h3l6 3h11l4 3 5-9 5 2 7-14-3-11 5-18 14-12 8-12-33-17-3-11-4 1v-4l1-2v-4l-6-1-6-6-1 2-11-2-1-5-10-6h-1l-5-1-3-1-5 5 1 6 4 1-1 4-1 3-10-1-2 2v5l-6 2-5-1 2 3-4 10 13 26 2-4 11 1 9 31z" id="07202" />
      <path d="M476 345l35-2v5l1 4 24 10h6l13 8 10 3 6 8 4 1 9-4-1-7 1-12 2-1-4-5-6-7 9-15-5-3-7-8-5-1-10 1-3 8h-4l2-5-3-5-3 3-7-1-3-5 4 1v-6l-5-2h-1v-4l-4-1 1 4h-2l1-8 7 2 3-6 5 3 3-1 2-6-4-4 2-7 5-4-3-3-1-2-9 3v-3l-4 2-7-2-2 2-5-5-8 6-8 5-12-5-1 6-7-5 2-3-2-12v-6l-6-1-9-28 3-22-1-3-8 10-11 8 1 7-4 9-5 2-3-4-7 4-3 6-8 9 9 8-1 7 5 6-2 5 3 4-2 8-6 1-2-5-7-3-18-3-8 12-14 12-5 18 3 11-7 14 15 10 6-3 7 2 3-1 1-4 6-2 8 1 9-7 4-11 2-3 4 8h9l2 7 8 5z" id="07203" />
      <path d="M601 509v5l-9 6-4 4 7 11 1 9 7 13 1 1 4 7 9 3 7-2 14 7h1l9 7 11-1 10 4 1 1 2-2 5 4v3l3-2-1-7 4-10 7-8 7-1 3 1 5-6 4 2-1-3h4l1-6 2 3 6-7 6-2 1 2 5 3 10-12 8-7v-6l3-4 2-2-4-13 1-20 9-27 3-15-2-6v-14l-17-2-20-11-4-6-10 1-2-6 3-4-5-10 5-9-8 2-2 8h-3l-3-2-4 4-10 2-2-4-5-4 4-8-7-6-7-3-7 2-5-5-4-7-2 1-9 2-1 13-1 1 2 5-4 5-1 16-6 4-5 1-14 11-2-1-4 3-1 11 4 10 5 8 3-6 3 7 10 23 1 3-5 2 2 5-7 4 1 6-7 2v5l-3 14zM718 559l4-11 5-2-5 2z" id="07204" />
      <path d="M420 469v1l9 11 8 3v3l3 13 1 5 8 2 11-3 1 8 6 5 2-7 9-3h9v-11l6-5 8 2 1-3-1-5h5l-4-6 4-1 4-2 13-13 3-2-2-3-9-5-6 2h-1l-4 2-8-2-13-1-5-1-1-7-5 1-5-4 5-7-1-4-7-2-10-5 9-5 14 1 4-5-3-5-6-6-7 1-21-5-11-8-9 1-19-9-6 4v5l13 14 4 8 2-6 8 6 9 7-1 5 10 4-2 13-4 3-7 3 5 4-3 3-3 1 2 4-7 2 1 3v2l-4-3z" id="07205" />
      <path d="M505 390l11 2 13 3 1 3 1 3 22 2 2-1v-12h7l6-3 1-4 6-1-4-1-6-8-10-3-13-8h-6l-24-10-1-4v-5l-35 2-18 3-8-5-2-7h-9l-4-8-2 3-4 11-9 7-8-1-6 2-1 4-3 1v1l1 2 18 14 18 9 4-2 1 3 18 5 22 6 3-1 5-3 1-6h2l1-8 14 4 3 3-4 6z" id="07207" />
      <path d="M359 210l1-11-3-2-15-10-10 1-9 2 1-5 11-13h3l5-8h3l4-9 9-5-3-4 1-9-1-4-5-4-7-15-1-6-2-4-7-6h-3v4l-2 3-10 1-8 1-8-8-12 6-8 5-6-9-4-5-7 2-10 3-4-5-2-2-4-10-3-1-11 5 13-3 11 17-5 3 7 11-7 6 2 4 1 7-8 22-4 11 2 9-3 1 2 7-4 12-7 1-6 5 5 1-4 6 6 2 2-2 5-2 3 12 3-1h2l2 2 11-6 3 3 2-1 1 2 7-1-4-10 6-11 5-1 2 4v3l-9-1 5 1 1 6-4 3 3 1 2-4 10 3 3 6 8 1 2 5 6-1 2-5 3 3 4-2 3 5 3 1 5 1 16-10 3-5z" id="07208" />
      <path d="M681 135l10 2 5 7 5-2 8-4 13 2 3-1 4 3 5-4 13 3 17 9-1-15-7-9-2-20v-7l-4-4 2 2-3 1 4 2-1 16v5l-7-5 3-14-9-1 2-2 7 1 1-3-5-5-1 3v-6l-16 3-12-3-14 1v21l-6 2-21-3-5-2-1 3-2 2 15 8-5 3-6-4-12-3-8 4-5-10-8-1v1l-6 7 2 8 8 6 13-5v6l-3 3 1 1 9-1 6-6z" id="07209" />
      <path d="M635 239l-5-6 4-10-3-3-5-1-12 7-1-13-5-6-14-2-5-7-7-11-11 8v-6l-4 2-3 7-3 3-2-2 2-6h-5v3l-4-4 2-5-25 4-18-4-15 1-24 4 2 8 1 3 5 2 17 3-1 6 3 4-5 1 9 16 15-3 9 12 3-2 5-6 3 8 5-1 4 6h5l3 3 2-2 5 1v6l5 5 4 2 4-5h5l4 4 19-11h7l9-7 14-1 1-3z" id="07210" />
      <path d="M568 319l5 1 7 8 5 3h4l3 4 8 6 4-2 13 5 3 9-5 10 4 12 4 2 6-7 8 1 1-1 1-13 9-2 2-1-8-17 2-6-3-4 6-8v-4l5-4 14 10h8l3 4 13-2 11 5 1-6 3-2v-5l1-7-4-6-2-9-1-8-4-3-1-3-5 2-5-4-6 2-5-4-3 1-3-4-16-5-14-5 6-11-7-5-3-2-14 1-9 7h-7l-19 11 2 4-2 8-6 6-2-5-6-2 1 3-2 4 8 1-5 3-1-2-2 2-4-7 1 3-4 4 9 4-2 10h-2l1 6h-5l4 6z" id="07211" />
      <path d="M696 223l3 12 11 4 2 11 11 2 3 1 2-5 5-1 16 6 11 5 11-2 4-1-4-48-4-27 6-3-4 2-1-4 5-1 3 4-3-4-6 1-3-10v-15l-17-9-13-3-5 4-4-3-3 1-13-2-8 4-5 2 1 6-9 5-4 4 6 3-3 10-1 3 4 2-2 7 3 8 2 5-2 5-5 3 2 1 3 7 6 2z" id="07212" />
      <path d="M651 136l3-3v-6l-13 5-8-6-2-8 6-7v-1v-1l-6-16 5-8-2-10-1-1 2-7-12-7-6 3-7-2-3-7-2-1-6 4-5 13 2 9-4-4-2 7-6 1 1 2-3 6-6-1-2 7-8-4-2 4-8 1-2 7 6-1 5 4 3 1-2 4 5 1-3 8 2 8 8-1 6-1 4 3-8 11-3 14 1 2 5-3h3l8 12 6-7 4-5 7 3 6-3 7 6 3-6 6-14z" id="07213" />
      <path d="M567 262l-5-5v-6l-5-1-2 2-3-3h-5l-4-6-5 1-3-8-5 6-3 2-5 4-8-2-1 8-18 5-8 1 2 12-2 3 7 5 1-6 12 5 8-5 8-6 5 5 2-2 7 2 4-2v3l9-3 1 2 11-1z" id="07214" />
      <path d="M549 62l-6 12 1 6 9 8h-4v4l3 6h4l8-1 2-4 8 4 2-7 6 1 3-6-1-2-7-3-2-6-11-3-10-8v-2l-1-1z" id="07301" />
      <path d="M599 57l-6-1-7-7-1 4-4 3-13 1-14 4v2l10 8 11 3 2 6 7 3 6-1 2-7 4 4-2-9z" id="07303" />
      <path d="M647 212l-8-3-11-10-3-18 2-7-5-6-4 1v-3l6-5-7-6-6 3-7-3-4 5-6 7-8-12h-3l-5 3-2 4v3l4 4-1 6h6l-2 4 4 4-5 4 7 11 5 7 14 2 5 6 1 13 12-7 5 1 3 3-4 10 5 6 5-12 1-2 4 1 5-7z" id="07308" />
      <path d="M576 162l2-4-1-2-7-4-4 5h4h4l2 4-10 17-7 1 8 12 4-2v6l11-8 5-4-4-4 2-4h-6l1-6-4-4z" id="07309" />
      <path d="M472 225l9 28 6 1v6l8-1 18-5 1-8 8 2 5-4-9-12-15 3-9-16 5-1-3-4 1-6-17-3-5-2z" id="07322" />
      <path d="M516 392l-11-2 4-2 4-6-3-3-14-4-1 8h-2l-1 6-5 3-3 6 3 8 3 1 3-3 5 2 4-4 5 3 8-1h3z" id="07342" />
      <path d="M487 392l-3 1-22-6-18-5-1-3-4 2-18-9-18-14-1-2v-1l-7-2-6 3-15-10-5-2-5 9-4 3-1 4-11 19h-4l2 13-8 10 7 10 7 3 6 2h8l17-6 2-2 3 2v-7l5-2 2-6-1-4 5 2v-5l6-4 19 9 9-1 11 8 21 5 7-1 8-2 1-5h3z" id="07344" />
      <path d="M282 399l6 5 4-2 8 16-8 9 4 5 3-1 6 11 15-3 7 2 5-2h12l-1-11 3-6 6-7-7-3-7-10 8-10-2-13h4l11-19 1-4 4-3-4-3h-11l-6-3h-3l-3 4-11 1 1-2-4-6v-4h4l-1-3-13 6v-2l-4-7-8 1-1 6-5 1-4 2 1 12-7 2-10 5-2 10-9-1-8-3-13 12-2 7 12 2 7 1-1 6 7 1 5 1 7-4h4z" id="07362" />
      <path d="M57 523l-2 2 1 13-4 7h-4l-1 1 2 3 3 2 10-6 6 5 7-1 5 4 13-1 3 8 9-3 8 4 6-8h10l1-8 5-3 4-3 2-8-7-5 2-14-2-5-11-10 1-10-1-7h-6l-7-7 2-12-5-5-4 2-9-4-4-16 4-3-1-6-9 2-13 3-8-8-3-13-5 3-3 4h1v1l1 8 4 3-4 16v1l-3 14 8 25v1l1 4-7 15z" id="07364" />
      <path d="M36 417l4-1 5-7 7 11 3-4 5-3 3 13 8 8 13-3 9-2 1 6-4 3 4 16 9 4 4-2 8-2 5-7 7 2 5-8 8-5v-7l6-6 2-8 6-8-4-8 1-9 4-5-4-4-3-12 10 2 2-4 11-8 3 5v-4l7 5 2-2 5-2v-8l-6-4-6-3 5-5-4-4 3-3h-3l-10-3-2-7h-1l-3 7-4-2-10 11h-4l-8 7-10-3-5-3-2-9-7 4-2-3-5-11 4-2 3-8-2-5 6-4-1-6 5-6-2-8-14-5-6 4-4 2-4-2-28 7-3-3-6 4-5-2-7 17-3 2 5 10 8 2 2 11-1 11-7 5 3 7-3 6-1 8-9 10-4 5-7 13 8 13z" id="07367" />
      <path d="M140 429v7l-8 5-5 8-7-2-5 7-8 2 5 5-2 12 7 7h6l1 7-1 10 11 10 2 5-2 14 7 5h2l8-2 3 3 12-6h5l8-7 9-4 2-6h10l5-1 3-8 16-4 3-9h4h7l4-4 17-2 5-5 4-6 6 1 13 3-3-16 2-3 5-6 8-2 6-5-6-11-3 1-4-5 8-9-8-16-4 2-6-5v-4h-4l-7 4-5-1-7-1 1-6-7-1-12-2-4 3-10 1-1 3h-5l-1 5-8-1-3 2-7 11-5-4-4-19 3-3 1-9-7-6-1-6-1-4-5 2-2 2-7-5v4l-3-5-11 8-2 4-10-2 3 12 4 4-4 5-1 9 4 8-6 8-2 8z" id="07368" />
      <path d="M332 188l10-1 15 10 3 2-1 11h6l15-4 8 4 10-19 20-13-2-7 3-9 5-3 4-25h-5l-4 2-3 7-10 2-6-2-6-10h-7l-1-1-6-10-6 6-14 4h-2l-2 1 1 4-1 9 3 4-9 5-4 9h-3l-5 8h-3l-11 13-1 5z" id="07402" />
      <path d="M248 227l1-7-3-3-3 1-3-12-5 2-2 2-6-2 4-6-5-1 6-5 7-1 4-12-2-7 3-1-2-9 4-11 8-22-1-7-2-4 7-6-7-11-6 7-13 12-9 10-4 13-10 10 1 11-7 2-5 9-17 8-4 11 1 10 7 6 2 12-2 14 5 8 5 1-2 8 4 1h12l16 2 2-7 4 3 3-3 2-16 3-12z" id="07405" />
      <path d="M379 231l-1-11 10-7v-3l-8-4-15 4h-6l-10-1-3 5-16 10h1l10 6 1 5 11 2 1-2 6 6 6 1v4l14-2v-4l-6-4 2-5z" id="07407" />
      <path d="M366 246l-1 2v4l4-1 3 11 33 17 18 3 7 3 2 5 6-1 2-8-3-4 2-5-5-6 1-7-9-8 8-9 3-6 7-4 3 4 5-2 4-9-1-7 11-8 8-10-2-8v-2l-1-8-17-8-2-1 2-12-3-7 1-7 5-2-3-6h-3l-12-3-11-2-4 25-5 3-3 9 2 7-20 13-10 19v3l-10 7 1 11h-3l-2 5 6 4v4z" id="07408" />
      <path d="M308 242l-5-5 1-15-2-5-8-1-3-6-10-3-2 4-3-1 4-3-1-6-5-1 9 1v-3l-2-4-5 1-6 11 4 10-7 1-1-2-2 1-3-3-11 6-2-2h-2l3 3-1 7 9 4 4 3-3 7 7 5 1 9 2 1 11-8h18l5 1 6-2z" id="07421" />
      <path d="M321 238l1-4-4-1-1-6 5-5-3-5-4 2-3-3-2 5-6 1-1 15 5 5 2-2 10 1z" id="07422" />
      <path d="M255 285l-1-4 4 1 6-6 3-10-1-11-1-9-7-5 3-7-4-3-9-4-9-2-3 12-2 16-3 3-4-3-2 7-16-2h-12l-1 5 3 3 17-2 19 1 3 4 6 7-13 2 2 6-11 15-2 13 5 7-10 11 5 5 4 5 6 1 10-5 5-3 6 1 8-8-1-6 5-8-1-3 1-9-7-8z" id="07423" />
      <path d="M194 304l4 16 4 2-2 5 6 4 9-1 10-11-5-7 2-13 11-15-2-6 13-2-6-7-3-4-19-1-17 2v1l-5 14 9 4v10z" id="07444" />
      <path d="M104 322l5 11 2 3 7-4 2 9 5 3 10 3 8-7h4l10-11 4 2 3-7h1l5-5 7-2 11 4 10-1-4-16 9-9v-10l-9-4 5-14v-1l-3-3 1-5-4-1-8 5-10-5-7-1-4 3-7-2-8 5-8-8-11 1-7 6-1 6-1 13-4 3 2 8-5 6 1 6-6 4 2 5-3 8z" id="07445" />
      <path d="M256 369l-3-19-8-10-1-6 1-1-5 3-10 5-6-1-4-5-5-5-9 1-6-4 2-5-4-2-10 1-11-4-7 2-5 5 2 7 10 3h3l-3 3 4 4-5 5 6 3 6 4v8l1 4 1 6 7 6-1 9-3 3 4 19 5 4 7-11 3-2 8 1 1-5h5l1-3 10-1 4-3 2-7z" id="07446" />
      <path d="M259 326l-8 8-6-1-1 1 1 6 8 10 3 19 8 3 9 1 2-10 10-5 7-2-1-12 4-2 5-1 1-6 8-1 5-7 12-7 4-5-9-31-11-1-2 4-13-26 4-10-2-3h-18l-11 8-2-1 1 11-3 10-6 6-4-1 1 4 1 7 7 8-1 9 1 3-5 8z" id="07447" />
      <path d="M379 450l4 3 15 1 9 6 4 4 4-1 5 6 2-2 4 3v-2l-1-3 7-2-2-4 3-1 3-3-5-4 7-3 4-3 2-13-10-4 1-5-9-7-8-6-2 6-4-8-13-14-5-2 1 4-2 6-5 2v7l-3-2-2 2-17 6h-8l-6-2-6 7-3 6 1 11v2l2 1 23 3z" id="07461" />
      <path d="M467 443l5 4 5-1 1 7 5 1 13 1-1-11-7-4 1-2v-9l-12-8-14-1-9 5 10 5 7 2 1 4z" id="07464" />
      <path d="M495 444l1 11 8 2 4-2h1l-1-2v-7l8-10 6-1v-3l-3-4-7-1-3 6-7 4-3-1z" id="07465" />
      <path d="M523 424l-1-2-4-8 3-7-3-3h-3l-8 1-5-3-4 4-5-2-3 3-3-1-3-8h-3l-1 5-8 2 6 6 3 5-4 5 12 8v9l-1 2 7 4 4-8 3 1 7-4 3-6 7 1 3 4z" id="07466" />
      <path d="M528 508l4 8 1-3 6-2 6-3-4-9-7 2-2 4-1-3 3-7-5-1-2-4-6-4 2-12-3-1-5 9-4-5-1-1-4 2-4 1 4 6h-5l1 5-1 3-8-2-6 5v11h-9l-9 3-2 7-6-5h-3l-2 5 5 8-3 5 3 6-3 3-1 6 9 6 3 1 5-2 2-3 1-5h10l4 3 6-1 11-8 2-6 1-3 10 9 2-4 3-2-3-7 1-5 3-1-3-6z" id="07481" />
      <path d="M517 601l10 1 3 5 4 2 3-2 7 10 3 5 7-6 3-3v-4l8-3 8-10-10-6-1-7-3 1-5-2-1-5h-5l-2-5-3 1-2-6-7-13-8-1 1 17-8 5-3-2-7-6-7 2-6-7-5-7-15-8-2 3 13 11 3 8 7 5 10 2 5 23z" id="07482" />
      <path d="M541 567l2 6 3-1 2 5h5l1 5 5 2 3-1 1 7 10 6 3-5 1-3 12-2 10-5-8-20-3-1 1-12-3-3-19-4-20-9-6-3 9-11v-6l-5-4-6 3-6 2-1 3-4-8-4 3 3 6-3 1-1 5 3 7-3 2-2 4-10-9-1 3-2 6-11 8-6 1-4-3h-10l-1 5 15 8 5 7 6 7 7-2 7 6 3 2 8-5-1-17 8 1z" id="07483" />
      <path d="M547 532l20 9 19 4 3 3 7-4-1-9-7-11 4-4-1-1-5-4-1-21-1-5-6-5-5 2-5-5-2-5-6-3-8 5-4-1h-3l-9 3v11l5 8 4 9 5 4v6l-9 11z" id="07484" />
      <path d="M544 461l4 16 4 1 8-5 4-5-3-4-2-4 8-2 7-8-3-5 6-4v-5l-5-3-1-6-3 1-9-9-9-5-7 5h-9l-6 2-1 5-4-2-1 8v3l-6 1-8 10v7l1 2 6-2 9 5 5-2 10 6z" id="07501" />
      <path d="M559 419l7-15v-7l2-10-6 3h-7v12l-2 1-22-2-1-3-1-3-13-3 2 12 3 3-3 7 4 8 1 2 4 2 1-5 6-2h9l7-5z" id="07502" />
      <path d="M606 436l-4-10 1-11 4-3-7-12 2-8-4-5-6 2-4-7-4-4-9 4-6 1-1 4-2 10v7l-7 15 9 9 3-1 1 6 5 3 4 1 6-6 6 1 3 5 10-1z" id="07503" />
      <path d="M545 477h3l-4-16-5 1-10-6-5 2 2 3-3 2-13 13 1 1 4 5 5-9 3 1-2 12 6 4 2 4 5 1-3 7 1 3 2-4 7-2-5-8v-11z" id="07504" />
      <path d="M585 494l1 21 5 4 1 1 9-6v-5h8l3-14v-5l7-2-1-6 7-4-2-5 5-2-1-3-10-23-3-7-3 6-5-8-10 1-3-5-6-1-6 6-4-1v5l-6 4 3 5-7 8-8 2 2 4 3 4-4 5 6 3 2 5 5 5 5-2 6 5z" id="07505" />
      <path d="M546 298l-5-3-3 6-7-2-1 8h2l-1-4 4 1v4h1l5 2v6l-4-1 3 5 7 1 3-3 3 5-2 5h4l3-8 10-1-1-8-4-6h5l-1-6h2l2-10-9-4 4-4-1-3 4 7 2-2 1 2 5-3-8-1 2-4-1-3 6 2 2 5 6-6 2-8-2-4-4-4h-5l-4 5-4-2-5 10-11 1 3 3-5 4-2 7 4 4-2 6z" id="07521" />
      <path d="M602 392l-2 8 7 12 2 1 14-11 5-1 6-4 1-16 4-5-2-5-8-1-6 7-4-2-4-12 5-10-3-9-13-5-4 2-8-6-3-4h-4l-9 15 6 7 4 5-2 1-1 12 1 7 4 4 4 7 6-2z" id="07522" />
      <path d="M767 393l-5-1h-20l-12 1-6-3-5 3-6 1-3 4 2 6 10-1 4 6 20 11 17 2 1-13 3-10h4l3-4-3 4v-6z" id="07541" />
      <path d="M713 394l6-1 5-3 6 3 12-1h20l5 1 5-37 5-2h-4l-9 2v5l-24-10-3-5-9-1-5 4-2 11 3 4-6 2-1 4-4 5-5 9z" id="07542" />
      <path d="M740 351l24 10v-5l9-2 3-1-4-2 2-10 2-15-5-1-26-2-5-2-15 5-1 6-2 4 6 9 9 1z" id="07543" />
      <path d="M673 367l7 6-4 8 5 4 2 4 10-2 4-4 3 2h3l2-8 8-2 4-5 1-4 6-2-3-4 2-11 5-4-6-9 2-4 1-6-1-1-19-5-3 2-1 6-11-5-13 2-3-4h-8l-14-10-5 4v4l-6 8 3 4-2 6 8 17 4 7 5 5 7-2z" id="07544" />
      <path d="M771 325l5 1-1-23 3-2-2 2-1-4h-6l-6-4-4 7-14 3-12-4-13-1-1-4-6 2-5 5-6-1 4 6-1 7v5l19 5 1 1 15-5 5 2z" id="07545" />
      <path d="M733 301l12 4 14-3 4-7 6 4h6l3 2-3-4 1-12v-6l-2 3-6-5-6-3-14 4-7 11-10 2-4-2-9 2 1 5 1 4z" id="07546" />
      <path d="M768 277l6 5 2-3 2-8-2-1-1-15-4 1-11 2-11-5-16-6-5 1-2 5-3-1-11-2-2-11-11-4-3-12 1-8-6-2-3-7-2-1-2 6-7 5-4-4-10 1-16-1 3 7-5 7-4-1-1 2-5 12-1 2 13 2 13 3v-4l3-1 9 2 4 4 16-5 7 1 2 16-1 4-5-1 2 12-2 8 4 3 1 8 2 9 6 1 5-5 6-2-1-5 9-2 4 2 10-2 7-11 14-4z" id="07547" />
      <path d="M670 276l3-1 5 4 6-2 5 4 5-2 1 3 2-8-2-12 5 1 1-4-2-16-7-1-16 5-4-4-9-2-3 1v4l-13-3-13-2-1 3 3 2 7 5-6 11 14 5 16 5z" id="07548" />
      <path d="M731 63v-1l-4 2-2-3h-6v-3l-16 6-1 1 2 14-2 4-3 3 2 4 14-1 12 3 16-3-4-6 2-3-3 3-2-4z" id="07561" />
      <path d="M628 199l11 10 8 3 16 1 10-1 4 4 7-5 2-6 5-3 2-5-2-5-3-8 2-7-4-2 1-3 3-10-6-3 4-4 9-5-1-6-5-7-10-2-14-5-6 6-9 1-1-1-18 5-6 14-3 6-6 5v3l4-1 5 6-2 7z" id="07564" />
    </defs>
    <rect x="-10" y="-10" width="820" height="660" fill="white" />
    <rect x="0" y="0" width="800" height="640" fill="#c0dcf7" />
    <g stroke="black" stroke-width="0.5" stroke-linejoin="round">
      <a xlink:href="http://ja.wikipedia.org/wiki/宮城県">
        <use xlink:href="#04000" fill="#c4fad5" />
      </a>
      <a xlink:href="http://ja.wikipedia.org/wiki/山形県">
        <use xlink:href="#06000" fill="#c4fad5" />
      </a>
      <a xlink:href="http://ja.wikipedia.org/wiki/茨城県">
        <use xlink:href="#08000" fill="#c4fad5" />
      </a>
      <a xlink:href="http://ja.wikipedia.org/wiki/栃木県">
        <use xlink:href="#09000" fill="#c4fad5" />
      </a>
      <a xlink:href="http://ja.wikipedia.org/wiki/群馬県">
        <use xlink:href="#10000" fill="#c4fad5" />
      </a>
      <a xlink:href="http://ja.wikipedia.org/wiki/新潟県">
        <use xlink:href="#15000" fill="#c4fad5" />
      </a>
      <a xlink:href="http://ja.wikipedia.org/wiki/福島市">
        <use xlink:href="#07201" fill="#6ede6e" />
      </a>
      <a xlink:href="http://ja.wikipedia.org/wiki/会津若松市">
        <use xlink:href="#07202" fill="#cbac47" />
      </a>
      <a xlink:href="http://ja.wikipedia.org/wiki/郡山市">
        <use xlink:href="#07203" fill="#607fe4" />
      </a>
      <a xlink:href="http://ja.wikipedia.org/wiki/いわき市">
        <use xlink:href="#07204" fill="#9ed04c" />
      </a>
      <a xlink:href="http://ja.wikipedia.org/wiki/白河市">
        <use xlink:href="#07205" fill="#df5b8d" />
      </a>
      <a xlink:href="http://ja.wikipedia.org/wiki/須賀川市">
        <use xlink:href="#07207" fill="#607fe4" />
      </a>
      <a xlink:href="http://ja.wikipedia.org/wiki/喜多方市">
        <use xlink:href="#07208" fill="#47accb" />
      </a>
      <a xlink:href="http://ja.wikipedia.org/wiki/相馬市">
        <use xlink:href="#07209" fill="#8d5bdf" />
      </a>
      <a xlink:href="http://ja.wikipedia.org/wiki/二本松市">
        <use xlink:href="#07210" fill="#bd4ebe" />
      </a>
      <a xlink:href="http://ja.wikipedia.org/wiki/田村市">
        <use xlink:href="#07211" fill="#607fe4" />
      </a>
      <a xlink:href="http://ja.wikipedia.org/wiki/南相馬市">
        <use xlink:href="#07212" fill="#8d5bdf" />
      </a>
      <a xlink:href="http://ja.wikipedia.org/wiki/伊達市">
        <use xlink:href="#07213" fill="#6ede6e" />
      </a>
      <a xlink:href="http://ja.wikipedia.org/wiki/本宮市">
        <use xlink:href="#07214" fill="#bd4ebe" />
      </a>
      <a xlink:href="http://ja.wikipedia.org/wiki/桑折町">
        <use xlink:href="#07301" fill="#8ce08c" />
      </a>
      <a xlink:href="http://ja.wikipedia.org/wiki/国見町">
        <use xlink:href="#07303" fill="#8ce08c" />
      </a>
      <a xlink:href="http://ja.wikipedia.org/wiki/川俣町">
        <use xlink:href="#07308" fill="#8ce08c" />
      </a>
      <a xlink:href="http://ja.wikipedia.org/wiki/飯野町">
        <use xlink:href="#07309" fill="#8ce08c" />
      </a>
      <a xlink:href="http://ja.wikipedia.org/wiki/大玉村">
        <use xlink:href="#07322" fill="#c774c8" />
      </a>
      <a xlink:href="http://ja.wikipedia.org/wiki/鏡石町">
        <use xlink:href="#07342" fill="#8199e4" />
      </a>
      <a xlink:href="http://ja.wikipedia.org/wiki/天栄村">
        <use xlink:href="#07344" fill="#8199e4" />
      </a>
      <a xlink:href="http://ja.wikipedia.org/wiki/下郷町">
        <use xlink:href="#07362" fill="#73d5b0" />
      </a>
      <a xlink:href="http://ja.wikipedia.org/wiki/桧枝岐村">
        <use xlink:href="#07364" fill="#73d5b0" />
      </a>
      <a xlink:href="http://ja.wikipedia.org/wiki/只見町">
        <use xlink:href="#07367" fill="#73d5b0" />
      </a>
      <a xlink:href="http://ja.wikipedia.org/wiki/南会津町">
        <use xlink:href="#07368" fill="#73d5b0" />
      </a>
      <a xlink:href="http://ja.wikipedia.org/wiki/北塩原村">
        <use xlink:href="#07402" fill="#6fbad2" />
      </a>
      <a xlink:href="http://ja.wikipedia.org/wiki/西会津町">
        <use xlink:href="#07405" fill="#6fbad2" />
      </a>
      <a xlink:href="http://ja.wikipedia.org/wiki/磐梯町">
        <use xlink:href="#07407" fill="#d2ba6f" />
      </a>
      <a xlink:href="http://ja.wikipedia.org/wiki/猪苗代町">
        <use xlink:href="#07408" fill="#d2ba6f" />
      </a>
      <a xlink:href="http://ja.wikipedia.org/wiki/会津坂下町">
        <use xlink:href="#07421" fill="#d2ba6f" />
      </a>
      <a xlink:href="http://ja.wikipedia.org/wiki/湯川村">
        <use xlink:href="#07422" fill="#d2ba6f" />
      </a>
      <a xlink:href="http://ja.wikipedia.org/wiki/柳津町">
        <use xlink:href="#07423" fill="#d2ba6f" />
      </a>
      <a xlink:href="http://ja.wikipedia.org/wiki/三島町">
        <use xlink:href="#07444" fill="#d2ba6f" />
      </a>
      <a xlink:href="http://ja.wikipedia.org/wiki/金山町">
        <use xlink:href="#07445" fill="#d2ba6f" />
      </a>
      <a xlink:href="http://ja.wikipedia.org/wiki/昭和村">
        <use xlink:href="#07446" fill="#d2ba6f" />
      </a>
      <a xlink:href="http://ja.wikipedia.org/wiki/会津美里町">
        <use xlink:href="#07447" fill="#d2ba6f" />
      </a>
      <a xlink:href="http://ja.wikipedia.org/wiki/西郷村">
        <use xlink:href="#07461" fill="#e07ea3" />
      </a>
      <a xlink:href="http://ja.wikipedia.org/wiki/泉崎村">
        <use xlink:href="#07464" fill="#e07ea3" />
      </a>
      <a xlink:href="http://ja.wikipedia.org/wiki/中島村">
        <use xlink:href="#07465" fill="#e07ea3" />
      </a>
      <a xlink:href="http://ja.wikipedia.org/wiki/矢吹町">
        <use xlink:href="#07466" fill="#e07ea3" />
      </a>
      <a xlink:href="http://ja.wikipedia.org/wiki/棚倉町">
        <use xlink:href="#07481" fill="#e07ea3" />
      </a>
      <a xlink:href="http://ja.wikipedia.org/wiki/矢祭町">
        <use xlink:href="#07482" fill="#e07ea3" />
      </a>
      <a xlink:href="http://ja.wikipedia.org/wiki/塙町">
        <use xlink:href="#07483" fill="#e07ea3" />
      </a>
      <a xlink:href="http://ja.wikipedia.org/wiki/鮫川村">
        <use xlink:href="#07484" fill="#e07ea3" />
      </a>
      <a xlink:href="http://ja.wikipedia.org/wiki/石川町">
        <use xlink:href="#07501" fill="#8199e4" />
      </a>
      <a xlink:href="http://ja.wikipedia.org/wiki/玉川村">
        <use xlink:href="#07502" fill="#8199e4" />
      </a>
      <a xlink:href="http://ja.wikipedia.org/wiki/平田村">
        <use xlink:href="#07503" fill="#8199e4" />
      </a>
      <a xlink:href="http://ja.wikipedia.org/wiki/浅川町">
        <use xlink:href="#07504" fill="#8199e4" />
      </a>
      <a xlink:href="http://ja.wikipedia.org/wiki/古殿町">
        <use xlink:href="#07505" fill="#8199e4" />
      </a>
      <a xlink:href="http://ja.wikipedia.org/wiki/三春町">
        <use xlink:href="#07521" fill="#8199e4" />
      </a>
      <a xlink:href="http://ja.wikipedia.org/wiki/小野町">
        <use xlink:href="#07522" fill="#8199e4" />
      </a>
      <a xlink:href="http://ja.wikipedia.org/wiki/広野町">
        <use xlink:href="#07541" fill="#e49981" />
      </a>
      <a xlink:href="http://ja.wikipedia.org/wiki/楢葉町">
        <use xlink:href="#07542" fill="#e49981" />
      </a>
      <a xlink:href="http://ja.wikipedia.org/wiki/富岡町">
        <use xlink:href="#07543" fill="#e49981" />
      </a>
      <a xlink:href="http://ja.wikipedia.org/wiki/川内村">
        <use xlink:href="#07544" fill="#e49981" />
      </a>
      <a xlink:href="http://ja.wikipedia.org/wiki/大熊町">
        <use xlink:href="#07545" fill="#e49981" />
      </a>
      <a xlink:href="http://ja.wikipedia.org/wiki/双葉町">
        <use xlink:href="#07546" fill="#e49981" />
      </a>
      <a xlink:href="http://ja.wikipedia.org/wiki/浪江町">
        <use xlink:href="#07547" fill="#e49981" />
      </a>
      <a xlink:href="http://ja.wikipedia.org/wiki/葛尾村">
        <use xlink:href="#07548" fill="#e49981" />
      </a>
      <a xlink:href="http://ja.wikipedia.org/wiki/新地町">
        <use xlink:href="#07561" fill="#a37ee0" />
      </a>
      <a xlink:href="http://ja.wikipedia.org/wiki/飯舘村">
        <use xlink:href="#07564" fill="#a37ee0" />
      </a>
    </g>
    <path d="M544 20l9 1v-5l-1 4 8 4 2-3-1 5 2-1 2 5-3 2-5-6zM455-4v1l-1-1zM323 341l5 9-2 3zM377 255l8-8h17l4 5-2 7 13 3 4 7-2 6 3 7-2 9-13 16-16-3-6-15-7-4-2-13-5 3-3-19 4 2zM748 99l1-2 4 3-1 21-7-5 3-14-9-1zM394 379l4 4-6 1-2 3h3l-6 6 5-11-2-2zM75 554l-1-6 8 4-3 4zM51 420l-3-1-6-13 4 2 1 7 7 5v4zM49 442l7-4 4 1-1 3-1-2-2 2v9l-2 3 3 6 6 1-7 1-4-4-1 7 4 3-3 2 7 5-4 5-5-15-3 5 6-22-4 5-5-1-1 13-5 4 4-5 1-11-7 2-13-9 18 7 12-9-11-2zM58 354l7 7 1-6 7 4-3 4 5 7h-2l3 4-3-1v4l5 2-3 10v-8l-3-3-3-11-2 2v-6l-6 1v4l-4-6-4 5-5-2 3 5-2 9 3 2-6-1-5 11 3 2-2 4 1-4-4-1 1-8 3 2v-7l5-1 1-7-3-6 9-2 1-4 6 3zM328 127l-3 8 6 4-9-4zM404 183l3-3 3 3 3-4-2 4 4-1-3 2 7-1 6 4-1 2-6-3-9 2-4-1zM399 175l5-4 1 2-12 9 1-4zM389 170l-1 2-2-4zM376 155l-3-3 8-4 4 8-1 22 2 3-2 3h4l-5 5-3-4-5 3 1-6h4l-3-8 3-3 1-12-2-6v5zM186 281l7 6-3 4-7-4zM562 417l4-3-3 4-3 1 3 3-4-3-4 3v-3l3 1-2-2zM550 312l3-2-2-3 5-3-2 6 3-3-1 3 6 3v5l-7-8-1 6v-5zM125 644l2-3h13l3 3zM321 463l-1 9-1-6 1-7zM158 575v-3l8-6-6 9 6 1-1 2-16 2-1-3 2 2 7-1zM233 550l2 2v-6l3-3-3 6 2 6-3 1h4l2 10-2-7-5-3 1-3-8-4zM235 567l-3 2 1-3-4-4-2 8-6 1 5-1 1-9h4zM-4 567l4-2-4 4zM-4 572l1 1h-1zM-4 537l2-2-2 4zM130 86l3-3v3l7 1-2 2zM-4 353h4l4 2-1 2-3-4v9l7 11-1-3h-4l-3-16-3-1zM0 379h4v-5h3l-1 2 4 2-4-1-1 3 8 13-8-4 1-6-4 1 4-2z" stroke="black" stroke-width="0.5" stroke-linejoin="round" fill="#c0dcf7" />
  </g>
</svg>